<svg width="24" height="24" viewBox="0 0 24 24" fill="none" xmlns="http://www.w3.org/2000/svg">
<path d="M2.75261 3.97498C3.70013 3.97498 4.69425 4.17441 5.59517 4.16016L14.915 3.90376C16.3285 3.90376 17.7265 3.90376 19.1245 3.81829C20.072 3.81829 21.0195 3.71857 21.9671 3.63311C22.1086 3.62218 22.2398 3.56093 22.3327 3.46244C22.4256 3.36394 22.4727 3.23603 22.4641 3.10605C22.4484 2.97886 22.38 2.86207 22.273 2.77987C22.1661 2.69766 22.0287 2.65634 21.8894 2.66447H19.1245C17.7421 2.66447 16.3596 2.50778 14.9461 2.42231C13.3577 2.34393 11.7658 2.34393 10.1774 2.42231C8.62412 2.52202 7.07081 2.73569 5.5175 2.92087C4.64765 3.03483 3.68459 2.92087 2.76814 3.02058C2.32712 3.03819 1.88955 3.10029 1.46336 3.20577C1.39858 3.21361 1.33633 3.23385 1.28064 3.26519C1.22495 3.29653 1.17706 3.33825 1.1401 3.38766C1.10313 3.43707 1.07791 3.49305 1.06607 3.55198C1.05423 3.6109 1.05603 3.67146 1.07136 3.7297C1.08669 3.78795 1.11521 3.84259 1.15506 3.89007C1.19491 3.93756 1.2452 3.97682 1.30268 4.00533C1.36015 4.03383 1.42351 4.05093 1.48866 4.05552C1.55381 4.06011 1.61928 4.05208 1.68082 4.03196C2.03499 3.97913 2.39416 3.96003 2.75261 3.97498Z" fill="black"/>
<path d="M21.6752 13.3858C21.1208 13.3026 20.5597 13.2608 19.9976 13.2605H17.357C16.4871 13.2605 15.2756 13.3301 14.2504 13.3301C12.6971 13.3301 11.1438 13.2605 9.59045 13.2327C8.03714 13.2049 6.31296 12.8431 4.65092 12.7597C3.97892 12.7109 3.30362 12.7109 2.63162 12.7597C2.49423 12.7761 2.355 12.745 2.2424 12.6726C2.12979 12.6002 2.05232 12.4919 2.02583 12.3701C2.01484 12.3079 2.01784 12.2443 2.03464 12.1832C2.05145 12.122 2.08171 12.0645 2.12367 12.0139C2.16563 11.9634 2.21843 11.9208 2.27898 11.8888C2.33953 11.8568 2.40661 11.8359 2.47629 11.8274C3.18483 11.7232 3.90183 11.672 4.61986 11.6744C4.61986 11.6744 13.3339 11.7579 13.4737 11.7579C14.794 11.7579 16.0988 11.9109 17.4036 12.0083C18.289 12.0779 19.1899 12.1196 20.0753 12.217C20.6883 12.2876 21.2954 12.3945 21.8927 12.537C21.9564 12.5482 22.0169 12.5712 22.0702 12.6045C22.1234 12.6378 22.1683 12.6808 22.202 12.7306C22.2356 12.7803 22.2572 12.8359 22.2655 12.8936C22.2738 12.9513 22.2685 13.01 22.2499 13.0657C22.2372 13.1213 22.212 13.174 22.1758 13.2205C22.1396 13.2671 22.0932 13.3066 22.0394 13.3365C21.9856 13.3665 21.9256 13.3863 21.863 13.3947C21.8004 13.4032 21.7365 13.4002 21.6752 13.3858Z" fill="black"/>
<path d="M22.5424 20.9351L17.0592 20.5158L14.1234 20.3061C13.1293 20.3061 12.1352 20.2246 11.1566 20.2246C9.82195 20.2326 8.48903 20.2987 7.1646 20.4226C6.13942 20.5275 5.06763 20.5508 4.05798 20.6556C3.5868 20.699 3.11984 20.7652 2.66 20.8536C2.53847 20.8737 2.43256 20.9291 2.36556 21.0078C2.29856 21.0864 2.27596 21.1818 2.30274 21.2729C2.32952 21.3641 2.40348 21.4435 2.50835 21.4937C2.61321 21.544 2.7404 21.5609 2.86193 21.5408C3.28806 21.4862 3.71897 21.455 4.15118 21.4477C5.1919 21.4477 6.26368 21.5059 7.2578 21.4477L16.9505 21.634H20.8027H22.356C22.4253 21.6394 22.4954 21.6344 22.5622 21.6195C22.629 21.6045 22.6913 21.5798 22.7453 21.5469C22.7994 21.5139 22.8443 21.4732 22.8775 21.4272C22.9106 21.3812 22.9313 21.3308 22.9385 21.2788C22.9456 21.2267 22.939 21.1742 22.9191 21.1241C22.8991 21.074 22.8662 21.0273 22.8222 20.9868C22.7782 20.9462 22.724 20.9126 22.6627 20.8877C22.6013 20.8629 22.5341 20.8473 22.4647 20.842L22.5424 20.9351Z" fill="black"/>
</svg>
