<svg width="358" height="5" viewBox="0 0 358 5" fill="none" xmlns="http://www.w3.org/2000/svg">
<path d="M0 1.19849C0 1.86515 0 2.53182 0 3.19849C5.96667 3.75048 11.9333 4.11182 17.9 4.28249C20.5705 4.35888 23.2411 4.39708 25.9116 4.39708C53.0703 4.39708 80.229 3.66983 107.388 3.66983C134.848 3.66983 162.308 4.03345 189.769 4.03345C232.317 4.03345 274.866 3.12439 317.415 3.12439C324.976 3.12439 332.538 3.42067 340.1 3.5765C342.798 3.63211 345.496 3.66983 348.194 3.66983C351.463 3.66983 354.731 3.51271 358 3.19849C358 2.53182 358 1.86515 358 1.19849C354.731 0.88426 351.463 0.727146 348.194 0.727146C345.496 0.727146 342.798 0.764867 340.1 0.820468C332.538 0.9763 324.976 1.27258 317.415 1.27258C274.866 1.27258 232.317 0.363521 189.769 0.363521C162.308 0.363521 134.848 0.727146 107.388 0.727146C80.229 0.727146 53.0703 -0.000103712 25.9116 -0.000103712C23.2411 -0.000103712 20.5705 0.0380909 17.9 0.11448C11.9333 0.285153 5.96667 0.646488 0 1.19849Z" fill="#94B0E2"/>
</svg>
