<svg width="48" height="48" viewBox="0 0 48 48" fill="none" xmlns="http://www.w3.org/2000/svg">
<path fill-rule="evenodd" clip-rule="evenodd" d="M43.5096 15.2822C42.6078 13.8092 41.1349 13.2681 37.1368 11.1938C26.8259 7.25598 26.3147 6.77483 25.5633 7.40602C25.1691 7.79463 25.1691 8.43043 25.5633 8.81904C28.995 10.6278 32.5395 12.2142 36.1748 13.5685C36.4152 13.749 40.5937 16.785 40.8342 16.8453C41.0746 16.9055 30.2226 21.9557 29.6517 22.1961C28.7718 22.8426 27.7326 23.2377 26.6455 23.3382C26.3749 23.3382 11.9157 18.2282 10.6533 17.3261C11.7653 16.7552 6.56485 20.0015 21.8358 10.3222C22.4347 9.97074 22.4288 9.10312 21.825 8.76001C21.5698 8.6149 21.2596 8.60322 20.994 8.72896L11.7955 13.3582C9.18031 14.5606 5.78332 16.1839 7.73746 18.4385C7.28367 22.6711 7.17329 26.9335 7.40664 31.1843C3.95585 32.1626 2.85827 36.5096 5.43099 39.0088C5.43806 39.0159 5.44544 39.023 5.45282 39.0301C7.85767 41.6753 12.7876 41.4952 13.7794 37.8276C14.6799 34.9653 12.9472 31.9434 10.0218 31.2744C10.6026 27.7175 10.7237 24.1004 10.3827 20.5128C12.0061 21.4145 14.9219 22.4968 21.5953 25.142C23.0081 25.6229 25.5033 27.4866 27.3671 26.8554C32.9134 24.6132 38.2375 21.8554 43.2691 18.6189C44.1205 17.7 44.2204 16.3134 43.5096 15.2822ZM10.6533 33.8296C11.4646 34.8214 11.1341 37.978 9.75124 38.0379C8.36834 38.0979 6.74533 35.6632 7.07583 34.4008C7.70733 32.1761 10.4427 33.5892 10.6533 33.8296Z" fill="#666666"/>
<path fill-rule="evenodd" clip-rule="evenodd" d="M37.2284 24.3303C35.8153 24.3303 36.2061 25.8334 35.8756 27.3362C35.5451 28.839 33.7714 28.8092 31.7875 29.7113C29.8035 30.6133 27.7593 32.0257 25.9555 32.7172C22.9582 32.003 20.0384 30.9961 17.2378 29.7113C16.8169 27.6068 17.2378 26.4646 16.0056 26.4646C15.5075 26.4646 15.1035 26.8683 15.1035 27.3664C15.1035 27.8644 15.1035 29.5007 15.1035 30.3726C15.1152 30.7354 15.2658 31.0797 15.5244 31.3343C17.0875 32.9278 24.5428 36.8354 26.4665 36.3244C28.8682 35.4295 31.1188 34.1726 33.1399 32.597C34.671 31.9326 36.0745 31.0068 37.2883 29.8616C38.2804 28.5989 38.0701 27.4567 38.1 25.8334C38.4938 25.1789 38.0311 24.3438 37.2677 24.3303C37.2545 24.33 37.2416 24.33 37.2284 24.3303Z" fill="#666666"/>
</svg>
