<svg width="47" height="48" viewBox="0 0 47 48" fill="none" xmlns="http://www.w3.org/2000/svg">
<path fill-rule="evenodd" clip-rule="evenodd" d="M41.9448 22.7997C41.943 25.0402 41.714 27.2748 41.2613 29.4702C40.8962 31.7491 40.0633 33.9302 38.814 35.8791C37.5202 37.9242 35.6179 39.5233 33.3682 40.4569C28.0781 42.445 22.2208 42.3671 16.9867 40.2389C14.3482 39.2627 11.9646 37.7142 10.011 35.7072C8.0575 33.7003 6.58377 31.286 5.69819 28.6418C5.05877 26.2322 4.97646 23.711 5.45739 21.2656C5.93832 18.8202 6.97012 16.5133 8.47622 14.5161C9.80158 12.497 11.5434 10.7776 13.5875 9.47026C15.6316 8.16296 17.932 7.29732 20.3379 6.93002C21.0932 6.63622 21.8761 6.41715 22.675 6.27606L24.042 6.12346C26.824 5.9944 29.5896 6.61207 32.0453 7.91098C36.2958 10.0065 39.5709 13.6347 41.1952 18.0475C41.6757 19.5875 41.9282 21.1882 41.9448 22.7997ZM36.8297 34.6365C35.7658 36.2474 34.2263 37.4956 32.4202 38.2116L31.8249 38.4296C32.0943 37.3839 32.2859 36.3202 32.3981 35.2469V33.4594C33.6077 33.2994 34.8074 33.0738 35.9919 32.7836C36.6824 32.6117 37.3601 32.3932 38.0203 32.1297C37.7064 33.0014 37.3077 33.841 36.8297 34.6365ZM20.2057 38.7783C19.6192 37.1256 19.1767 35.4264 18.8828 33.6992H19.0592C21.2507 33.997 23.4615 34.1355 25.6735 34.1134C27.1481 34.0788 28.6198 33.9697 30.0831 33.7864H30.524V35.2469C30.5118 36.4655 30.3639 37.679 30.0831 38.8655C30.0831 38.8655 30.0831 38.8655 30.0831 38.9963C26.8239 39.7407 23.428 39.6658 20.2057 38.7783ZM9.07151 30.9961C11.6018 31.93 14.2047 32.659 16.8544 33.176C17.2743 34.8603 17.8121 36.5138 18.4639 38.1244L17.8686 38.059C14.2344 36.7184 11.1445 34.2376 9.07151 30.9961ZM7.06516 23.4973L8.21164 23.6934C10.681 24.2166 13.1063 24.9796 15.6197 25.3502H15.8402C15.8402 26.2875 15.8402 27.2467 15.9945 28.184C16.1489 29.1214 16.215 30.0805 16.3914 31.0179C13.8511 30.7116 11.3379 30.2161 8.87308 29.5356C8.80052 29.5024 8.72153 29.4852 8.64158 29.4852C8.56163 29.4852 8.48263 29.5024 8.41007 29.5356C7.47564 27.655 7.05024 25.5671 7.1754 23.4755L7.06516 23.4973ZM9.84318 15.4316C10.0416 15.1264 10.2621 14.8431 10.4826 14.5597C12.6874 15.17 14.7378 15.7586 16.8764 16.1946C16.7001 16.9576 16.5237 17.7205 16.3693 18.3745C16.0903 19.9672 15.9209 21.5767 15.8622 23.1921L7.21949 22.1239C7.60312 19.7342 8.49756 17.4527 9.84318 15.4316ZM19.3678 9.04453C18.6304 10.6824 17.9971 12.3642 17.4717 14.0801C15.4874 13.8839 13.4811 13.6005 11.4968 13.2735C16.3693 7.91098 19.2135 9.08813 19.3017 9.04453H19.3678ZM25.9822 7.73659C26.798 10.0473 27.4594 12.3144 28.0326 14.5815H25.9601C23.7554 14.5815 21.6829 14.4507 19.5222 14.2545C19.9211 12.1852 20.4889 10.1512 21.2199 8.17257C22.7537 7.6736 24.3818 7.52455 25.9822 7.73659ZM36.2124 13.3607C34.2279 13.9008 32.1989 14.2655 30.1492 14.4507C29.4217 12.2708 28.5397 10.0909 27.5696 8.01997C28.8515 8.32972 30.0887 8.79848 31.2516 9.41511C33.1285 10.4294 34.8082 11.7654 36.2124 13.3607ZM39.74 20.4236C37.3115 21.5378 34.7474 22.3364 32.1115 22.7997C31.8976 21.1183 31.581 19.4513 31.1634 17.8077L30.7666 16.4998C32.9018 16.1123 34.9922 15.5135 37.0061 14.7123C37.0061 14.7123 37.0061 14.7123 37.1384 14.6033C38.0943 15.8494 38.8389 17.2409 39.3432 18.7233C39.5157 19.2801 39.6484 19.8483 39.74 20.4236ZM19.0151 16.587C20.3951 16.8026 21.7863 16.9409 23.1821 17.0012C24.5941 17.052 26.0079 17.0156 27.4153 16.8922L28.5397 16.7614L28.8705 18.2437C29.2012 19.835 29.4657 21.4482 29.7083 23.0613C27.5867 23.3193 25.4519 23.4576 23.3144 23.4755H18.3095C18.3095 21.9495 18.508 20.4018 18.6844 18.8977C18.7726 18.0693 18.8828 17.3281 19.0151 16.587ZM18.2875 28.075V25.6772C19.1033 25.6772 19.9411 25.8298 20.7569 25.8733C23.3638 25.9856 25.9757 25.8689 28.5618 25.5246L30.0169 25.2412C30.1933 26.6363 30.3477 28.0532 30.4359 29.601L30.5681 31.6501H30.039C27.8342 31.7809 25.7397 31.7591 23.601 31.6501C21.9033 31.6501 20.2277 31.4757 18.5521 31.3231C18.4198 30.2549 18.3316 29.165 18.2875 28.075ZM39.74 22.7997C39.6978 24.9488 39.4393 27.0883 38.9684 29.1868C38.9684 29.5574 38.792 29.928 38.7038 30.2985C37.7222 30.6906 36.7027 30.9828 35.6612 31.1705C34.6172 31.3417 33.5648 31.4582 32.5084 31.5193V29.5138C32.5084 27.9224 32.5084 26.3529 32.3099 24.827C34.8925 24.1901 37.3874 23.2458 39.74 22.0149V22.7997Z" fill="black"/>
<path fill-rule="evenodd" clip-rule="evenodd" d="M46.2077 6.62012H43.0077H42.4077V6.16012C42.1677 4.82012 41.8077 3.54012 41.5877 2.16012C41.5826 2.08389 41.5625 2.00942 41.5286 1.94097C41.4946 1.87253 41.4475 1.81146 41.3899 1.76129C41.3323 1.71111 41.2653 1.67281 41.1929 1.64858C41.1204 1.62436 41.0439 1.61469 40.9677 1.62012C40.8923 1.62262 40.8183 1.6403 40.7499 1.6721C40.6816 1.7039 40.6204 1.74917 40.57 1.8052C40.5195 1.86122 40.4809 1.92685 40.4565 1.99815C40.432 2.06944 40.4222 2.14494 40.4277 2.22012C40.2942 3.77637 40.2608 5.33959 40.3277 6.90012C39.2694 7.21275 38.228 7.57991 37.2077 8.00012C37.1336 8.01214 37.0627 8.03891 36.9992 8.07887C36.9356 8.11882 36.8808 8.17113 36.8379 8.2327C36.795 8.29426 36.7649 8.36383 36.7494 8.43725C36.7339 8.51068 36.7333 8.58647 36.7477 8.66012C36.7723 8.81094 36.8554 8.94596 36.979 9.03584C37.1025 9.12572 37.2566 9.16319 37.4077 9.14012H40.4677C40.4677 9.38012 40.4677 9.60012 40.5677 9.82012C40.7477 11.2001 41.0077 12.5401 41.1277 13.8201C41.1274 13.9937 41.1935 14.1609 41.3125 14.2873C41.4315 14.4138 41.5943 14.4899 41.7677 14.5001C41.9427 14.5001 42.1106 14.4306 42.2344 14.3068C42.3581 14.183 42.4277 14.0152 42.4277 13.8401C42.5979 12.4668 42.6781 11.0839 42.6677 9.70012V8.80012L43.3077 8.68012C44.3677 8.44012 45.3077 8.16012 46.4077 7.90012C46.581 7.87522 46.7381 7.78437 46.8462 7.64651C46.9542 7.50866 47.0049 7.33443 46.9877 7.16012C46.9733 7.07279 46.9415 6.98925 46.8941 6.91446C46.8468 6.83967 46.7849 6.77517 46.7121 6.72479C46.6394 6.67441 46.5572 6.63918 46.4705 6.6212C46.3839 6.60322 46.2945 6.60285 46.2077 6.62012Z" fill="#4D7CCE"/>
<path fill-rule="evenodd" clip-rule="evenodd" d="M10.4072 40.82C9.26724 40.68 8.16724 40.52 7.02724 40.42H6.38724C6.39716 40.327 6.39716 40.2331 6.38724 40.14C6.1548 38.5388 5.81402 36.9551 5.36724 35.4C5.33804 35.2515 5.25381 35.1195 5.13141 35.0305C5.00902 34.9415 4.85751 34.902 4.70724 34.92C4.63138 34.9296 4.55829 34.9546 4.49247 34.9935C4.42665 35.0324 4.3695 35.0844 4.32453 35.1462C4.27955 35.2081 4.24772 35.2785 4.23099 35.3531C4.21426 35.4277 4.21298 35.5049 4.22724 35.58V39.72V40.46H4.08724C2.94724 40.58 1.84724 40.82 0.687238 41.06C0.603455 41.0443 0.517227 41.0472 0.434693 41.0685C0.352159 41.0899 0.275348 41.1292 0.209729 41.1836C0.144109 41.238 0.0912941 41.3062 0.0550441 41.3834C0.018794 41.4606 0 41.5448 0 41.63C0 41.7153 0.018794 41.7995 0.0550441 41.8766C0.0912941 41.9538 0.144109 42.022 0.209729 42.0765C0.275348 42.1309 0.352159 42.1702 0.434693 42.1915C0.517227 42.2129 0.603455 42.2158 0.687238 42.2C1.84724 42.32 2.94724 42.5 4.06724 42.58H4.30724V43.26C4.48724 44.66 4.72724 46.02 4.96724 47.42C4.98254 47.5916 5.06432 47.7504 5.19511 47.8625C5.3259 47.9746 5.49534 48.0311 5.66724 48.02C5.75316 48.015 5.8372 47.9928 5.91433 47.9546C5.99145 47.9163 6.06007 47.863 6.11608 47.7976C6.1721 47.7323 6.21435 47.6563 6.24033 47.5742C6.2663 47.4922 6.27545 47.4057 6.26724 47.32C6.26724 45.88 6.40724 44.46 6.38724 43.02V42.56H6.90724C8.04724 42.56 9.14724 42.32 10.2872 42.18C10.4623 42.18 10.6302 42.1105 10.7539 41.9867C10.8777 41.8629 10.9472 41.6951 10.9472 41.52C10.9646 41.3563 10.9181 41.1922 10.8175 41.0618C10.717 40.9314 10.57 40.8448 10.4072 40.82Z" fill="#4D7CCE"/>
<path fill-rule="evenodd" clip-rule="evenodd" d="M43.6472 34.0001C43.4887 33.9193 43.3208 33.8589 43.1472 33.8201H42.6272C42.4272 33.8201 40.8072 34.1001 40.7672 34.6801C40.7672 34.8401 40.6272 35.2001 42.2872 35.9201C42.5752 36.027 42.88 36.0812 43.1872 36.0801C45.0272 36.0801 45.0672 35.8001 45.1872 35.5001C45.3072 35.2001 45.2672 34.8401 43.6472 34.0001Z" fill="#4D7CCE"/>
<path fill-rule="evenodd" clip-rule="evenodd" d="M42.2273 40.2001C42.0831 40.0628 41.9294 39.9358 41.7673 39.8201C41.6075 39.715 41.4404 39.6214 41.2673 39.5401C40.7947 39.392 40.3139 39.2718 39.8273 39.1801C39.7638 39.1367 39.692 39.1068 39.6164 39.0923C39.5409 39.0778 39.4631 39.079 39.3881 39.0959C39.313 39.1128 39.2422 39.145 39.1801 39.1905C39.1181 39.2359 39.066 39.2937 39.0273 39.3601C38.9451 39.4901 38.9179 39.6474 38.9516 39.7974C38.9854 39.9474 39.0773 40.0779 39.2073 40.1601C39.4782 40.5569 39.772 40.9376 40.0873 41.3001C40.2238 41.4539 40.3863 41.5825 40.5673 41.6801C40.7364 41.7931 40.9175 41.887 41.1073 41.9601C41.5835 42.1241 42.0716 42.2511 42.5673 42.3401C42.7171 42.3917 42.8804 42.3877 43.0275 42.3287C43.1745 42.2698 43.2955 42.16 43.3683 42.0193C43.4411 41.8786 43.4608 41.7164 43.4239 41.5623C43.387 41.4082 43.2959 41.2726 43.1673 41.1801C42.8073 40.8601 42.5673 40.5201 42.2273 40.2001Z" fill="#4D7CCE"/>
<path fill-rule="evenodd" clip-rule="evenodd" d="M9.98736 8.5401C9.98736 8.5401 11.0874 9.8601 11.5874 9.6601C11.5874 9.6601 12.1674 9.6601 11.9474 7.6601C11.926 7.51542 11.8857 7.3742 11.8274 7.2401C11.7519 7.119 11.6574 7.01093 11.5474 6.9201C10.5474 5.4801 10.3074 5.5801 10.0274 5.6601C9.74736 5.7401 9.54736 6.0001 9.66736 7.6601C9.68247 7.81683 9.71604 7.97123 9.76736 8.1201C9.82476 8.26788 9.89856 8.40876 9.98736 8.5401Z" fill="#4D7CCE"/>
<path fill-rule="evenodd" clip-rule="evenodd" d="M5.00734 11.6401L5.54734 12.1801C5.69929 12.3427 5.86675 12.4901 6.04734 12.6201C6.50734 12.9801 6.96734 13.1801 7.44734 13.5001C7.5561 13.6088 7.70357 13.6699 7.85734 13.6699C8.0111 13.6699 8.15858 13.6088 8.26734 13.5001C8.37138 13.389 8.42927 13.2424 8.42927 13.0901C8.42927 12.9379 8.37138 12.7913 8.26734 12.6801C8.06689 12.1685 7.82613 11.6736 7.54734 11.2001C7.41516 10.997 7.26088 10.8092 7.08734 10.6401C6.91518 10.4639 6.72778 10.3033 6.52734 10.1601C6.06734 9.84013 5.58734 9.58013 5.10734 9.28013C4.98268 9.15548 4.81362 9.08545 4.63734 9.08545C4.46105 9.08545 4.29199 9.15548 4.16734 9.28013C4.04268 9.40478 3.97266 9.57385 3.97266 9.75013C3.97266 9.92641 4.04268 10.0955 4.16734 10.2201C4.44734 10.7001 4.68734 11.1601 5.00734 11.6401Z" fill="#4D7CCE"/>
<path fill-rule="evenodd" clip-rule="evenodd" d="M0.867037 16.8002C1.24704 17.0602 1.52704 17.3602 1.88704 17.6202C2.02736 17.7618 2.18146 17.8891 2.34704 18.0002L2.86704 18.1802C3.33002 18.2619 3.79755 18.3153 4.26704 18.3402C4.40495 18.4091 4.56461 18.4205 4.71088 18.3717C4.85716 18.3229 4.97808 18.2181 5.04704 18.0802C5.11599 17.9422 5.12734 17.7826 5.07858 17.6363C5.02982 17.49 4.92495 17.3691 4.78704 17.3002C4.42704 16.9402 4.18704 16.6002 3.80704 16.2802C3.65137 16.1684 3.48366 16.0745 3.30704 16.0002C3.1208 15.9193 2.92632 15.8589 2.72704 15.8202C2.25915 15.7263 1.78408 15.6728 1.30704 15.6602C1.15008 15.5989 0.97564 15.6 0.819463 15.6632C0.663286 15.7264 0.537198 15.847 0.467037 16.0002C0.416044 16.1593 0.429343 16.3321 0.504091 16.4816C0.578838 16.6311 0.709103 16.7454 0.867037 16.8002Z" fill="#4D7CCE"/>
</svg>
