<svg width="48" height="48" viewBox="0 0 48 48" fill="none" xmlns="http://www.w3.org/2000/svg">
<g clip-path="url(#clip0_1580_4984)">
<path d="M34.1528 15.8183C33.7728 13.4288 32.8 11.1878 31.3329 9.3226C30.9009 8.7713 30.4233 8.12413 29.9003 7.57283C29.5283 7.14222 29.0803 6.79213 28.5813 6.54214C28.3974 6.44361 28.1838 6.42613 27.9877 6.49356C27.7915 6.56098 27.6288 6.70779 27.5353 6.90168C27.4418 7.09558 27.4252 7.32067 27.4892 7.52745C27.5532 7.73422 27.6924 7.90574 27.8764 8.00428C28.2058 8.20353 28.5048 8.45404 28.7633 8.74733C29.208 9.28293 29.6255 9.843 30.014 10.4252C31.2275 12.0419 32.0122 13.9692 32.288 16.0101C32.5264 18.0715 32.3481 20.1627 31.765 22.1463C30.9047 25.2082 29.0228 27.8389 26.4665 29.5529C23.9202 31.2648 20.9328 32.1023 17.9161 31.9498C16.8408 31.9215 15.7723 31.7606 14.7324 31.4704C13.7644 31.2244 12.8473 30.7939 12.0263 30.2C10.4599 28.9396 9.21061 27.2936 8.38785 25.4061C7.53993 23.5422 7.17884 21.4737 7.34179 19.4138C7.50348 17.9992 7.86368 16.6179 8.41059 15.315C8.97577 13.9758 9.65309 12.6923 10.4345 11.4799C11.0517 10.5194 11.7603 9.62794 12.5494 8.81924C13.2905 8.02503 14.171 7.39007 15.1418 6.94962C16.508 6.44775 17.9476 6.20431 19.3942 6.23054C21.6919 6.22177 23.9823 6.50342 26.2163 7.06947C26.3044 7.0915 26.3958 7.09503 26.4852 7.07985C26.5746 7.06468 26.6603 7.03109 26.7373 6.98101C26.8144 6.93093 26.8814 6.86534 26.9344 6.78798C26.9874 6.71062 27.0255 6.62301 27.0464 6.53016C27.0673 6.4373 27.0706 6.34101 27.0562 6.24679C27.0418 6.15257 27.01 6.06226 26.9624 5.98102C26.9149 5.89978 26.8527 5.8292 26.7793 5.7733C26.7059 5.71741 26.6228 5.6773 26.5347 5.65527C24.2345 4.98811 21.8691 4.60206 19.4852 4.50473C17.8261 4.43681 16.1693 4.68862 14.596 5.24779C13.6118 5.6011 12.6954 6.13684 11.8899 6.82978C10.7057 7.78562 9.64996 8.90643 8.7517 10.1615C7.80901 11.453 6.99372 12.8424 6.31848 14.3083C5.6318 15.8263 5.15692 17.4409 4.90857 19.1022C4.62202 21.6477 5.0076 24.2273 6.02285 26.5567C7.0457 28.8931 8.60972 30.9208 10.5709 32.4532C11.6568 33.2893 12.8839 33.8994 14.1867 34.2509C15.4256 34.6019 16.7015 34.7872 17.9843 34.8022C21.5268 34.8766 25.0024 33.7784 27.9219 31.6622C30.8725 29.5547 32.9913 26.3838 33.8799 22.7455C34.4274 20.4817 34.5203 18.1222 34.1528 15.8183Z" fill="black"/>
<path d="M46.46 41.1599C46.3705 40.7252 46.2502 40.2975 46.1 39.8799C45.8239 39.1713 45.4611 38.4995 45.02 37.8799C44.412 37.0013 43.7437 36.166 43.02 35.3799C41.9714 34.2205 40.8346 33.144 39.62 32.1599C37.96 30.7999 36.22 29.5399 34.46 28.1599C34.9954 27.1515 35.4308 26.0931 35.76 24.9999C36.2563 23.3632 36.6307 21.692 36.88 19.9999C37.1837 18.371 37.3311 16.7168 37.32 15.0599C37.2847 13.9052 37.0895 12.761 36.74 11.6599C36.4176 10.6688 36.0301 9.70001 35.58 8.75992C35.2739 8.09554 34.8985 7.46537 34.46 6.87992C33.7025 5.89023 32.8067 5.0146 31.8 4.27992C30.3326 3.24429 28.7483 2.38504 27.08 1.71992C25.9062 1.21088 24.6962 0.789723 23.46 0.459922C22.155 0.118971 20.8083 -0.0358924 19.46 -7.79745e-05C17.8074 0.0884194 16.1768 0.418593 14.62 0.979922C13.077 1.53825 11.5904 2.24139 10.18 3.07992C8.97779 3.76016 7.84564 4.55736 6.79999 5.45992C-1.68001 13.0599 2.31999 26.1599 2.43999 26.4199C2.68324 27.0234 2.96379 27.6112 3.27999 28.1799C3.73999 28.9799 4.25999 29.7599 4.77999 30.5399C5.79562 32.0822 7.03597 33.4642 8.45999 34.6399C9.45791 35.433 10.5888 36.0425 11.8 36.4399C13.184 36.8872 14.602 37.2216 16.04 37.4399C17.0309 37.6048 18.0364 37.6652 19.04 37.6199C20.5847 37.5219 22.1105 37.2262 23.58 36.7399C25.0198 36.2381 26.4175 35.6229 27.76 34.8999C28.02 35.2199 28.28 35.5599 28.52 35.8999C29.36 37.2199 30.06 38.6399 30.86 39.8999C31.4089 40.7738 32.017 41.6091 32.68 42.3999C33.3061 43.1818 33.9737 43.9296 34.68 44.6399C36.6227 46.4495 39.0721 47.6218 41.7 47.9999C42.2261 48.0972 42.7664 48.088 43.2888 47.9727C43.8113 47.8575 44.3053 47.6386 44.7417 47.3291C45.178 47.0195 45.5479 46.6255 45.8293 46.1705C46.1107 45.7155 46.298 45.2086 46.38 44.6799C46.461 44.3305 46.5211 43.9765 46.56 43.6199C46.5896 43.2672 46.5896 42.9126 46.56 42.5599C46.5695 42.0912 46.536 41.6226 46.46 41.1599ZM44.14 44.0999C44.0381 44.611 43.7406 45.0622 43.3111 45.3573C42.8815 45.6524 42.3536 45.7682 41.84 45.6799C39.746 45.409 37.7741 44.5411 36.16 43.1799C35.46 42.5799 34.76 41.8999 34.16 41.1799C33.503 40.4968 32.8948 39.7683 32.34 38.9999C31.44 37.7599 30.66 36.3599 29.72 35.1199C29.4818 34.7954 29.2211 34.488 28.94 34.1999L29.22 34.0199C29.6591 33.6971 30.0798 33.3499 30.48 32.9799C30.5811 32.8451 30.6302 32.6784 30.6182 32.5103C30.6063 32.3422 30.5341 32.1841 30.415 32.0649C30.2958 31.9458 30.1377 31.8736 29.9696 31.8617C29.8015 31.8497 29.6348 31.8988 29.5 31.9999C29.1567 32.3153 28.7889 32.6029 28.4 32.8599C28.0161 33.1318 27.6153 33.3789 27.2 33.5999C25.9092 34.2562 24.5723 34.8177 23.2 35.2799C21.8167 35.7016 20.385 35.9436 18.94 35.9999C17.8304 36.0167 16.7228 35.9025 15.64 35.6599C14.5281 35.4323 13.4324 35.1317 12.36 34.7599C11.1117 34.3019 9.97373 33.5864 9.01999 32.6599C8.02998 31.6923 7.1573 30.6116 6.41999 29.4399C5.92886 28.7169 5.47493 27.9692 5.05999 27.1999C4.79178 26.7071 4.55141 26.1996 4.33999 25.6799C3.58796 23.5732 3.31467 21.3254 3.53999 19.0999C3.53999 18.2199 3.53999 10.6199 8.79999 6.79992C9.63999 6.19992 10.48 5.59992 11.36 5.07992C12.6237 4.2823 13.9636 3.61234 15.36 3.07992C16.7245 2.59647 18.1536 2.32008 19.6 2.25992C20.7245 2.22786 21.8481 2.34897 22.94 2.61992C24.0799 2.892 25.1966 3.25311 26.28 3.69992C27.5719 4.17813 28.8171 4.77396 30 5.47992C31.1246 6.14295 32.126 6.99552 32.96 7.99992C33.3324 8.47556 33.6605 8.98436 33.94 9.51992C34.3675 10.3828 34.7416 11.2711 35.06 12.1799C35.3963 13.1055 35.5919 14.0763 35.64 15.0599C35.6952 16.6186 35.6014 18.179 35.36 19.7199C35.1819 21.0665 34.9282 22.4019 34.6 23.7199C34.2755 25.0382 33.8129 26.3186 33.22 27.5399C32.8827 28.234 32.495 28.9025 32.06 29.5399C31.6306 30.1476 31.1488 30.7165 30.62 31.2399C30.5625 31.2958 30.5169 31.3627 30.4857 31.4365C30.4545 31.5104 30.4384 31.5898 30.4384 31.6699C30.4384 31.7501 30.4545 31.8294 30.4857 31.9033C30.5169 31.9772 30.5625 32.044 30.62 32.0999C30.7355 32.2111 30.8896 32.2733 31.05 32.2733C31.2103 32.2733 31.3645 32.2111 31.48 32.0999C32.0678 31.5304 32.6095 30.9152 33.1 30.2599C33.32 29.9599 33.48 29.6399 33.68 29.3199C35.32 30.6799 36.94 31.9599 38.46 33.3199C39.5584 34.3024 40.5751 35.3726 41.5 36.5199C42.1339 37.2654 42.7153 38.054 43.24 38.8799C43.5574 39.3875 43.8126 39.9314 44 40.4999C44.1011 40.8278 44.1812 41.1618 44.24 41.4999C44.2697 41.8192 44.2697 42.1406 44.24 42.4599L44.14 44.0999Z" fill="black"/>
<path fill-rule="evenodd" clip-rule="evenodd" d="M30.2678 16.7118C30.5311 15.5785 30.536 14.3854 30.2821 13.2407C30.0282 12.096 29.5235 11.0359 28.8138 10.1568C28.0362 9.30224 27.0782 8.6822 26.0316 8.35614C24.9851 8.03008 23.8852 8.00896 22.8375 8.29479C22.5542 8.31389 21.299 8.92934 21.1653 9.29224C21.0317 9.65514 20.7911 10.3084 21.2627 10.7366C21.7343 11.1649 24.8518 10.4947 26.2981 11.7773C26.9263 12.2538 27.422 12.9193 27.7265 13.6953C28.031 14.4712 28.1317 15.3251 28.0165 16.1558C27.9551 16.4885 28.0147 16.8368 28.1824 17.1241C28.35 17.4115 28.6119 17.6143 28.9105 17.6881C29.209 17.7618 29.5197 17.7004 29.7743 17.5173C30.0288 17.3342 30.2064 17.0445 30.2678 16.7118Z" fill="black"/>
</g>
<defs>
<clipPath id="clip0_1580_4984">
<rect width="48" height="48" fill="white"/>
</clipPath>
</defs>
</svg>
