<svg width="40" height="40" viewBox="0 0 40 40" fill="none" xmlns="http://www.w3.org/2000/svg">
<path d="M36.8157 12.2156C34.2 6.65627 30.2407 2.5344 23.1438 1.48752C16.0469 0.440648 10.2219 2.99377 6.7219 6.9844C3.2219 10.975 1.32503 14.1813 1.78128 21.6063C2.24066 29.0313 6.71565 33.7781 9.36878 36.1625C10.9719 37.6031 12.9344 38.7781 14.0469 38.7125C15.1594 38.6469 15.9782 37.9281 16.2063 36.8156C16.4344 35.7031 16.4688 28.4406 16.3688 26.7719C16.2688 25.1031 15.3875 24.7438 14.7657 24.6781C14.1438 24.6125 12.2782 24.6781 12.1813 24.6469C12.0844 24.6156 12.3125 21.0813 12.3782 20.8844C12.4438 20.6875 15.6813 20.3625 15.8125 20.2625C15.9438 20.1656 15.8782 19.25 15.9094 18.0375C15.9407 16.8281 16.0719 14.0469 19.3125 11.1344C22.5532 8.2219 27.7188 9.13752 27.7188 9.13752L27.4907 13.3906C27.4907 13.3906 26.9032 13.3594 25.5282 13.4219C24.1532 13.4875 22.4532 14.8938 22.0282 16.0063C21.6032 17.1188 21.375 20.0625 21.8969 20.1938C22.4188 20.325 26.475 20.2594 26.8688 20.2906C27.2625 20.3219 26.9344 20.8469 26.4094 21.925C25.8844 23.0031 24.7094 24.9031 24.7094 24.9031H23.1407C22.3563 24.9031 21.6344 25.9156 21.5063 26.6031C21.375 27.2906 21.1782 37.9531 21.4094 38.2813C21.6375 38.6094 22.9782 39.3594 26.775 37.7594C30.5688 36.1563 33.4469 32.9844 35.8375 29.2219C38.225 25.4594 39.4344 17.7719 36.8188 12.2125L36.8157 12.2156ZM35.9969 24.6125C35.0813 27.95 32.1032 31.5469 28.6688 34.0656C25.2344 36.5844 22.8469 36.0938 22.8469 36.0938L23.0438 26.2156C23.0438 26.2156 25.1032 26.1188 25.2032 26.1188C25.3032 26.1188 25.825 25.9875 26.1844 25.2344C26.5438 24.4813 27.6563 22.0281 27.95 20.7188C28.2438 19.4094 27.525 19.3125 27.0344 19.2469C26.5438 19.1813 22.7813 19.0844 22.7813 19.0844C22.7813 19.0844 22.75 16.5969 23.6657 15.5844C24.5813 14.5719 26.1532 14.5719 26.8375 14.5375C27.525 14.5063 28.3094 14.4719 28.4063 14.1125C28.5032 13.7531 28.6032 10.025 28.4063 8.61565C28.2094 7.2094 26.5407 7.07815 24.4157 7.24065C22.2907 7.40315 19.05 7.7969 16.1407 11.1656C13.2282 14.5344 13.85 18.3625 13.85 18.3625C13.85 18.3625 11.9844 18.3938 11.3313 18.4281C10.6782 18.4625 10.0875 19.0156 10.0563 19.3125C10.025 19.6063 9.9594 22.7813 10.025 24.1531C10.0907 25.5281 10.1563 26.1813 10.7782 26.2781C11.1688 26.3406 13.6907 26.5063 13.6907 26.5063L13.9188 35.9938C12.8407 35.8625 8.75003 34.0313 5.15315 28.6344C1.55628 23.2375 2.89691 16.3688 3.97503 13.425C5.05315 10.4813 10.0907 1.7469 19.775 2.23752C29.4594 2.72815 33.2844 8.22502 35.1813 12.0188C37.0782 15.8125 36.9156 21.275 36 24.6125H35.9969Z" fill="black"/>
<path d="M8.70001 8.55002C8.94064 8.50315 9.41876 9.18752 9.30626 9.41565C9.19376 9.64377 8.06251 10.0688 6.85314 12.6063C5.64376 15.1406 5.80626 16.5156 5.77501 16.6781C5.74376 16.8406 4.87501 16.7938 4.74376 16.5969C4.61251 16.4 4.85939 14.4531 5.82189 12.3938C6.78439 10.3344 8.37189 8.61565 8.70001 8.55002Z" fill="black"/>
<path d="M24.0063 31.5625C23.9626 31.3625 24.7751 30.9563 24.922 30.9906C25.0688 31.025 27.5063 33.5406 27.5063 33.7063C27.5063 33.8719 27.1126 34.2125 26.9845 34.1813C26.8563 34.15 24.072 31.875 24.0063 31.5656V31.5625Z" fill="black"/>
<path d="M25.9375 30.45C25.8937 30.25 26.7062 29.8438 26.8531 29.8782C27 29.9125 29.0781 32.4625 29.0781 32.625C29.0781 32.7875 28.6844 33.1313 28.5562 33.1C28.4281 33.0688 26.0062 30.7625 25.9406 30.45H25.9375Z" fill="black"/>
<path d="M28.1938 29.4375C28.1501 29.2375 28.9626 28.8313 29.1095 28.8656C29.2563 28.9 30.9907 30.8938 30.9907 31.0563C30.9907 31.2188 30.597 31.5625 30.4688 31.5313C30.3407 31.5 28.2595 29.75 28.197 29.4375H28.1938Z" fill="black"/>
<path d="M29.6844 28.1437C29.6407 27.9437 30.4532 27.5375 30.6001 27.5719C30.7469 27.6063 32.3001 29.4687 32.3001 29.6312C32.3001 29.7937 31.9063 30.1375 31.7782 30.1062C31.6501 30.075 29.7501 28.4531 29.6844 28.1437Z" fill="black"/>
<path d="M30.9594 27.2625C30.9156 27.0625 31.5312 26.575 31.6781 26.6094C31.825 26.6438 32.8719 27.8688 32.8719 28.0313C32.8719 28.1938 32.4781 28.5375 32.35 28.5063C32.2219 28.475 31.025 27.575 30.9594 27.2625Z" fill="black"/>
<path d="M32.1032 25.4313C32.0594 25.2313 32.675 24.7438 32.8219 24.7782C32.9688 24.8125 33.9 25.9219 33.9 26.0875C33.9 26.2532 33.5063 26.5938 33.3782 26.5625C33.25 26.5313 32.1688 25.7438 32.1032 25.4344V25.4313Z" fill="black"/>
<path d="M33.0032 23.3688C32.9594 23.1688 33.5751 22.6813 33.7219 22.7157C33.8688 22.75 35.0469 24.025 35.0469 24.1875C35.0469 24.35 34.7532 24.6938 34.6219 24.6625C34.4907 24.6313 33.0688 23.6813 33.0032 23.3719V23.3688Z" fill="black"/>
<path d="M33.5437 21.2907C33.5 21.0907 34.1156 20.6032 34.2625 20.6375C34.4094 20.6719 35.5875 21.9469 35.5875 22.1094C35.5875 22.2719 35.2937 22.6157 35.1625 22.5844C35.0312 22.5532 33.6093 21.6032 33.5437 21.2938V21.2907Z" fill="black"/>
<path d="M33.8531 19.4782C33.8094 19.2782 34.425 18.7907 34.5718 18.825C34.7187 18.8594 35.4375 19.725 35.4375 19.8875C35.4375 20.05 35.1437 20.3938 35.0125 20.3625C34.8812 20.3313 33.9156 19.7907 33.85 19.4782H33.8531Z" fill="black"/>
</svg>
