<svg width="24" height="24" viewBox="0 0 24 24" fill="none" xmlns="http://www.w3.org/2000/svg">
<path d="M23.1957 15.4819C23.2426 13.2188 23.2726 8.76751 23.2257 6.82688C23.1788 4.88626 22.1476 4.10063 21.3151 4.03876C20.4826 3.97688 17.9269 3.96188 12.3976 3.93001C6.86818 3.90001 2.97193 4.08376 2.27818 4.16063C1.58443 4.23751 0.999433 5.34751 0.999433 6.07126C0.999433 6.07126 0.830683 9.79876 0.813808 12.6938C0.798808 15.5888 0.645058 17.0213 0.860683 18.1463C1.07631 19.2713 1.78506 19.8413 2.77131 19.9631C3.75756 20.0869 6.45193 20.0869 9.33193 20.055C12.2119 20.025 18.2644 19.8863 20.9288 19.8094C23.5932 19.7325 23.1469 17.745 23.1919 15.4819H23.1957ZM3.11256 4.65376C4.65193 4.59188 7.73256 4.43813 12.2926 4.46813C16.8507 4.49813 20.2557 4.48313 20.8407 4.62188C21.4257 4.76063 21.9338 5.23876 21.9338 5.34563C21.9338 5.45251 15.6507 10.6125 14.8482 11.2294C14.0476 11.8463 13.1382 12.3994 11.8763 12.5381C10.6126 12.6769 7.50193 10.3819 5.80881 9.19688C4.11381 8.01188 1.72693 6.13126 1.72693 6.13126C1.72693 6.13126 1.57318 4.71376 3.11256 4.65188V4.65376ZM1.34068 15.435C1.31068 13.695 1.44756 9.96751 1.43256 8.73563C1.41756 7.50376 1.53943 6.71813 1.53943 6.71813C1.53943 6.71813 3.01881 8.15063 5.32881 9.75188C7.63881 11.3531 8.47131 11.8163 8.47131 11.8163C8.47131 11.8163 6.85506 12.9713 4.69881 14.9119C2.54256 16.8525 1.83381 17.9925 1.83381 17.9925C1.83381 17.9925 1.37256 17.1769 1.34068 15.435ZM10.1813 18.5625C5.43756 18.5625 2.83506 18.7013 2.23318 18.3169C2.23318 18.3169 4.32756 16.0838 5.94568 14.6213C7.56193 13.1588 9.16506 12.2025 9.16506 12.2025C9.16506 12.2025 10.0276 13.2338 11.7526 13.2956C13.4776 13.3575 14.7713 12.1706 14.7713 12.1706C14.7713 12.1706 16.1738 13.08 18.1144 14.9269C20.0551 16.7756 21.1182 18.3769 21.1182 18.3769C21.1182 18.3769 14.9269 18.5625 10.1832 18.5625H10.1813ZM22.1176 13.0331C22.0876 15.3131 22.0707 16.8675 22.0707 17.3306C22.0707 17.7938 21.7013 18.1463 21.6244 18.1313C21.6244 18.1313 20.8088 16.8675 19.0219 14.9738C17.2351 13.08 15.3263 11.7694 15.3263 11.7694C15.3263 11.7694 17.1901 10.1363 18.7613 8.85938C20.3326 7.58063 22.1494 6.11813 22.1494 6.11813C22.1494 6.11813 22.1494 10.7531 22.1194 13.0331H22.1176Z" fill="black"/>
<path d="M1.91074 8.8444C1.91636 8.72815 2.48074 8.70565 2.51074 8.90627C2.54074 9.1069 2.58761 10.785 2.48074 10.9238C2.37386 11.0625 1.91074 11.0775 1.89574 10.9538C1.88074 10.83 1.89574 9.1369 1.91074 8.8444Z" fill="black"/>
<path d="M2.71132 5.80875C2.77132 5.66625 3.21945 5.50125 3.75945 5.3625C4.29945 5.22375 4.7607 5.17688 4.97632 5.3625C5.19195 5.54813 5.25382 5.76375 5.11507 5.88563C4.97632 6.0075 4.40632 5.88563 3.93007 6.00938C3.45195 6.13313 3.0207 6.31688 2.92882 6.33188C2.83695 6.34688 2.66632 5.91563 2.7132 5.80875H2.71132Z" fill="black"/>
<path d="M15.0956 16.9763C15.0731 16.8956 15.5738 16.6988 15.6656 16.7306C15.7575 16.7625 16.2037 17.4544 16.2037 17.5931C16.2037 17.7319 15.8494 17.8238 15.7875 17.8238C15.7256 17.8238 15.1556 17.1919 15.0938 16.9763H15.0956Z" fill="black"/>
<path d="M16.1889 16.7438C16.1514 16.6331 16.4814 16.4213 16.6051 16.4663C16.7289 16.5113 17.6364 17.6981 17.6364 17.775C17.6364 17.8519 17.3907 18.0525 17.252 17.9906C17.1132 17.9288 16.2507 16.9275 16.1889 16.7438Z" fill="black"/>
<path d="M17.0513 16.3444C17.0663 16.2375 17.4826 16.0988 17.5894 16.0988C17.6963 16.0988 19.0069 17.6081 19.0219 17.7C19.0369 17.7919 18.6526 17.9456 18.5288 17.9156C18.4051 17.8856 17.0494 16.3444 17.0494 16.3444H17.0513Z" fill="black"/>
<path d="M18.6075 16.545C18.5063 16.3612 19.0238 16.4212 19.1157 16.4681C19.2075 16.515 19.7776 17.2537 19.7776 17.3306C19.7776 17.4075 19.3932 17.4694 19.2544 17.4075C19.1157 17.3456 18.6994 16.7137 18.6075 16.545Z" fill="black"/>
<path d="M19.2376 14.0344C19.1626 13.8694 19.607 13.665 19.7307 13.695C19.8545 13.725 21.2251 15.5588 21.2251 15.6056C21.2251 15.6525 21.0563 15.8831 20.9326 15.8681C20.8088 15.8531 19.3163 14.205 19.2376 14.0363V14.0344Z" fill="black"/>
<path d="M19.8544 13.2169C19.7794 13.0519 20.2238 12.8475 20.3475 12.8775C20.4713 12.9075 21.5025 14.2181 21.5025 14.2631C21.5025 14.3081 21.3338 14.5406 21.21 14.5256C21.0863 14.5106 19.9313 13.3856 19.8544 13.2169Z" fill="black"/>
<path d="M20.1619 11.94C20.0869 11.775 20.5313 11.5706 20.655 11.6006C20.7788 11.6306 21.5794 12.7256 21.5794 12.7706C21.5794 12.8156 21.4107 13.0481 21.2869 13.0331C21.1632 13.0181 20.2388 12.1088 20.1619 11.94Z" fill="black"/>
<path d="M20.5481 10.9219C20.4731 10.7569 20.9175 10.5525 21.0413 10.5825C21.165 10.6125 21.4725 11.1994 21.4725 11.2444C21.4725 11.2894 21.3038 11.5219 21.18 11.5069C21.0563 11.4919 20.625 11.0906 20.5481 10.9219Z" fill="black"/>
<path d="M20.9682 9.8344C21.1069 9.52502 21.5326 9.81377 21.3788 10.0594C21.2251 10.305 20.8238 10.1513 20.9682 9.8344Z" fill="black"/>
</svg>
