<svg width="40" height="40" viewBox="0 0 40 40" fill="none" xmlns="http://www.w3.org/2000/svg">
<path d="M20.2813 12.6906C13.5781 12.7906 12.6375 18.3812 12.9844 20.3344C13.3313 22.2875 14.8406 25.7781 20.0094 25.8031C25.1813 25.8281 26.8625 21.9187 26.5656 18.3312C26.2688 14.7437 22.7063 12.6562 20.2813 12.6906ZM19.5375 24.9125C16.5688 24.7156 14.7375 22.6625 14.6406 20.2125C14.5406 17.7625 16.5219 13.7812 22.2344 14.175C22.975 14.225 25.475 15.9812 25.475 19.4187C25.475 22.8562 22.5063 25.1094 19.5375 24.9094V24.9125ZM19.9094 9.92186C19.9094 9.92186 15.8031 9.59999 12.7844 12.7187C9.8125 15.7875 9.91563 19.5969 10.3094 21.2781C10.7063 22.9594 13.6 30.6781 21.1688 30.7281C28.7375 30.7781 30.5688 24.0719 30.7938 21.0812C31.0156 18.0875 30.075 16.6531 28.2719 14.2781C26.4656 11.9031 23.175 9.82499 19.9094 9.92499V9.92186ZM26.1188 27.0906C21.9375 29.8875 16.9656 28.475 15.0344 26.8937C13.1063 25.3094 11.325 22.3406 11.05 19.8437C10.7781 17.3437 12.3844 13.7812 14.6875 12.3469C16.9875 10.9125 19.9063 10.9125 19.9063 10.9125C22.1813 10.9375 25.4969 11.8781 27.75 15.3406C30 18.8031 30.2969 24.2969 26.1188 27.0906ZM38.3906 9.10624C38.2906 6.18749 34.4313 1.88124 30.6719 1.58436C26.9125 1.28749 14.7406 1.18749 8.70313 1.28749C2.66563 1.38749 1.875 8.60936 1.825 10.7375C1.825 10.7375 1.62813 20.3375 1.62813 23.8C1.62813 27.2625 1.13438 30.4781 2.86563 33.35C4.59688 36.2187 7.31875 38.5937 8.45625 38.5937C9.59375 38.5937 24.5375 38.7906 26.5156 38.7437C28.4938 38.6937 33.6906 38.5937 35.5219 37.0125C37.3531 35.4281 38.0438 32.9062 38.2438 30.1844C38.4406 27.4625 38.4906 12.025 38.3938 9.10624H38.3906ZM37.325 23.9219C37.325 27.5094 37.1031 31.0469 35.8906 33.125C34.6781 35.2031 32.675 36.0187 29.9781 36.2406C27.2813 36.4625 20.925 36.4625 16.3469 36.4375C11.7688 36.4125 8.875 36.4875 8.03438 36.3625C7.19375 36.2375 4.86875 35.0281 3.60625 32.4281C2.34375 29.8312 2.59063 26.0687 2.64063 23.1C2.69063 20.1312 2.79063 10.7312 2.79063 10.7312C2.81563 8.43124 3.63125 5.85624 4.91875 4.32499C6.20625 2.79061 7.64063 2.19686 10.4344 2.24686C13.2313 2.29686 23.8688 2.27186 27.1344 2.37186C30.4 2.47186 33.0719 3.06561 34.9281 5.26561C36.7844 7.46874 37.2781 8.10936 37.4031 10.9062C37.5281 13.7031 37.3281 20.3312 37.3281 23.9187L37.325 23.9219ZM29.3094 8.04061C27.1063 8.04061 27.2313 9.94686 27.3063 10.8375C27.3813 11.7281 28.1969 13.1375 30.0531 12.9406C31.9094 12.7437 32.3281 10.9625 32.0063 10.1437C31.6844 9.32811 30.8438 8.04061 29.3094 8.04061ZM30.35 10.7875C29.7563 11.4312 28.6688 11.3562 28.3969 10.4406C28.1844 9.72811 28.5469 9.10624 29.6094 9.17811C30.525 9.24061 30.9438 10.1437 30.3531 10.7875H30.35ZM27.3313 3.76249C24.3875 3.66249 10.5406 3.81561 9.05 3.86249C5.78438 3.96249 4.76875 7.62186 4.425 10.0969C4.07813 12.5719 3.93125 19.7937 3.95625 23.7281C3.98125 27.6625 4.15313 30.0875 5.21875 31.7437C6.28125 33.4 7.37188 34.1687 12.3438 34.4156C17.3156 34.6625 22.3875 34.8844 25.9 34.9094C29.4125 34.9344 31.4406 34.6875 33.4938 32.6094C35.5469 30.5312 35.3 28.3062 35.325 24.5187C35.35 20.7344 35.45 13.6344 35.0531 9.30311C34.6562 4.97499 30.2781 3.85936 27.3344 3.76249H27.3313ZM34.1594 29.6375C33.8125 31.3187 32.4281 32.5062 31.1406 33.125C29.8531 33.7437 27.75 33.7687 24.0406 33.7437C20.3313 33.7187 13.0563 33.4719 10.9281 33.4219C8.8 33.3719 7.51563 33.025 6.69688 31.1719C5.88125 29.3156 5.75625 25.5812 5.75625 20.6562C5.75625 15.7312 5.75625 11.5031 6.54688 9.54686C7.3375 7.59374 8.42813 6.35624 9.98438 5.98436C11.2813 5.67499 24.6781 5.85936 28.0938 6.00936C31.5063 6.15936 32.15 6.43124 32.9188 7.44374C33.6844 8.45936 34.4281 9.96561 34.4281 13.7031C34.4281 17.4406 34.5031 27.9531 34.1563 29.6344L34.1594 29.6375Z" fill="black"/>
<path d="M14.5406 13.2125C14.8468 13.0687 15.1343 13.6344 15.1093 13.8562C15.0843 14.0781 13.8968 14.7469 13.2031 16.0344C12.5093 17.3219 12.6093 18.2375 12.4625 18.3594C12.3156 18.4812 11.7437 18.4594 11.6718 18.4094C11.6 18.3594 11.6718 16.85 12.4125 15.5906C13.1531 14.3281 14.1687 13.3875 14.5406 13.2156V13.2125Z" fill="black"/>
<path d="M21.4563 27.1156C21.3281 26.8312 21.7781 26.4594 22 26.4844C22.2219 26.5094 23.0625 27.5969 23.0375 27.7344C23.0125 27.8719 22.6031 28.0687 22.3938 28.0562C22.1844 28.0437 21.5156 27.2531 21.4531 27.1156H21.4563Z" fill="black"/>
<path d="M22.7906 26.225C22.6625 25.9406 23.1125 25.5687 23.3344 25.5937C23.5562 25.6187 24.7312 27.1156 24.7062 27.25C24.6812 27.3843 24.2719 27.5844 24.0625 27.5719C23.8531 27.5594 22.85 26.3593 22.7875 26.225H22.7906Z" fill="black"/>
<path d="M24.175 25.4937C24.0469 25.2093 24.4969 24.8375 24.7188 24.8625C24.9406 24.8875 25.8563 26.1625 25.8313 26.2968C25.8063 26.4312 25.3969 26.6312 25.1875 26.6187C24.9781 26.6062 24.2344 25.6281 24.1719 25.4937H24.175Z" fill="black"/>
<path d="M25.3875 24.3687C25.2594 24.0843 25.7094 23.7125 25.9313 23.7375C26.1532 23.7625 27.0688 25.0375 27.0438 25.1718C27.0188 25.3062 26.6094 25.5062 26.4 25.4937C26.1907 25.4812 25.4469 24.5031 25.3844 24.3687H25.3875Z" fill="black"/>
<path d="M26.3657 23.5656C26.2376 23.2812 26.6876 22.9094 26.9094 22.9344C27.1313 22.9594 27.9376 24.0094 27.9126 24.1469C27.8876 24.2844 27.5907 24.5312 27.3813 24.5187C27.1719 24.5062 26.4282 23.7031 26.3657 23.5656Z" fill="black"/>
<path d="M27.0844 22.4156C26.9563 22.1312 27.4063 21.7593 27.6282 21.7843C27.8501 21.8093 28.3688 22.5156 28.3469 22.65C28.3251 22.7843 28.0251 23.0343 27.8157 23.0218C27.6063 23.0093 27.1469 22.5531 27.0844 22.4156Z" fill="black"/>
<path d="M27.4657 20.9188C27.3375 20.6344 27.7875 20.2625 28.0094 20.2875C28.2313 20.3125 28.7438 21.0156 28.7282 21.1531C28.7032 21.3625 28.7032 21.7844 28.4938 21.7719C28.2844 21.7594 27.5282 21.0531 27.4657 20.9188Z" fill="black"/>
<path d="M6.60628 3.53122C6.75628 3.46559 7.15003 4.02497 7.06878 4.12497C6.98753 4.22497 5.9969 4.63747 5.28753 5.74059C4.57815 6.84684 4.4969 7.86872 4.41253 7.98434C4.32815 8.09997 3.70315 8.03434 3.6219 7.93434C3.54065 7.83434 4.16565 6.00622 4.7594 5.21247C5.35315 4.41872 6.19378 3.71247 6.60628 3.53122Z" fill="black"/>
<path d="M31.8093 34.5531C31.7187 34.3719 32.1062 34.125 32.2531 34.1563C32.4 34.1875 32.9781 34.85 32.9625 34.9813C32.9468 35.1125 32.6156 35.3438 32.45 35.3438C32.2843 35.3438 31.8562 34.65 31.8062 34.5531H31.8093Z" fill="black"/>
<path d="M32.8969 33.8593C32.8062 33.6781 33.1937 33.4312 33.3406 33.4625C33.4875 33.4937 34.0656 34.1562 34.05 34.2875C34.0344 34.4187 33.7031 34.65 33.5375 34.65C33.3719 34.65 32.9437 33.9562 32.8937 33.8593H32.8969Z" fill="black"/>
<path d="M33.8376 33.1687C33.7469 32.9875 34.2001 32.5406 34.3501 32.575C34.5001 32.6094 35.1751 33.4156 35.1594 33.5469C35.1438 33.6781 34.8126 33.9094 34.6469 33.9094C34.4813 33.9094 33.8876 33.2656 33.8376 33.1687Z" fill="black"/>
<path d="M34.4969 32.1625C34.4062 31.9812 34.8594 31.5343 35.0094 31.5687C35.1594 31.6031 35.8344 32.4093 35.8187 32.5406C35.8031 32.6718 35.4719 32.9031 35.3062 32.9031C35.1406 32.9031 34.5469 32.2593 34.4969 32.1625Z" fill="black"/>
<path d="M35.0094 30.9562C34.9188 30.775 35.3719 30.3281 35.5219 30.3625C35.6719 30.3968 36.3469 31.2031 36.3313 31.3343C36.3157 31.4656 35.9844 31.6968 35.8188 31.6968C35.6532 31.6968 35.0594 31.0531 35.0094 30.9562Z" fill="black"/>
<path d="M35.3532 29.7031C35.2626 29.5219 35.7157 29.075 35.8657 29.1094C36.0157 29.1437 36.6907 29.95 36.6751 30.0812C36.6594 30.2125 36.3282 30.4437 36.1626 30.4437C35.9969 30.4437 35.4032 29.8 35.3532 29.7031Z" fill="black"/>
<path d="M35.4375 28.1375C35.3469 27.9562 35.8 27.5094 35.95 27.5437C36.1 27.5781 36.775 28.3844 36.7594 28.5156C36.7438 28.6469 36.4125 28.8781 36.2469 28.8781C36.0813 28.8781 35.4875 28.2344 35.4375 28.1375Z" fill="black"/>
<path d="M35.6344 26.6188C35.5438 26.4375 35.9969 25.9906 36.1469 26.025C36.2969 26.0594 36.9719 26.8656 36.9563 26.9969C36.9407 27.1281 36.6094 27.3594 36.4438 27.3594C36.2782 27.3594 35.6844 26.7156 35.6344 26.6188Z" fill="black"/>
<path d="M35.6844 24.9375C35.5937 24.7562 36.0469 24.3094 36.1969 24.3437C36.3469 24.3781 37.0219 25.1844 37.0062 25.3156C36.9906 25.4469 36.6594 25.6781 36.4937 25.6781C36.3281 25.6781 35.7344 25.0344 35.6844 24.9375Z" fill="black"/>
</svg>
