<svg width="40" height="40" viewBox="0 0 40 40" fill="none" xmlns="http://www.w3.org/2000/svg">
<path d="M12.6844 14.6281C12.3094 14.55 8.06567 14.4094 7.3813 14.4344C6.69692 14.4594 6.5313 15.0406 6.50317 15.4781V32.3281C6.50317 33.2844 6.78755 33.7469 7.17505 33.7719C7.56255 33.7969 11.0969 33.9 11.975 33.7969C12.8532 33.6937 13.1875 33.1531 13.1875 32.8156C13.1875 32.4781 13.2407 29.0219 13.3157 25.6937C13.3938 22.3656 13.3938 16.3 13.4188 15.5531C13.4438 14.8062 13.0563 14.7031 12.6844 14.625V14.6281ZM11.8719 32.6375L8.31255 32.5344L8.57192 16.0719L12.2625 16.0969L11.875 32.6375H11.8719ZM38.5782 5.51873C38.5438 3.66248 36.7563 1.90623 34.7938 1.76873C32.8313 1.63123 8.09692 1.49373 5.30942 1.52811C2.52192 1.56248 1.90317 3.45311 1.90317 4.96873C1.90317 4.96873 1.76567 9.95623 1.66255 14.9125C1.55942 19.8656 1.3188 28.95 1.4563 32.975C1.5938 37 4.14067 38.375 6.61567 38.4437C9.0938 38.5125 29.6313 38.4781 33.9313 38.3406C38.2313 38.2031 38.3688 36.1719 38.4375 34.7969C38.5063 33.4219 38.6094 7.37811 38.575 5.51873H38.5782ZM36.7469 25.5156C36.7219 30.1594 36.7469 32.8937 36.6438 33.6687C36.5407 34.4437 35.9469 35.9906 34.1157 36.25C32.2844 36.5094 25.9375 36.4812 19.8719 36.4812C13.8063 36.4812 6.99692 36.5594 5.50005 36.325C4.00317 36.0937 2.66255 35.2937 2.58442 32.0156C2.5063 28.7375 2.66255 19.2437 2.79067 15.6312C2.9188 12.0187 2.8938 5.74998 2.8938 5.74998C2.8938 4.35623 3.3313 2.73123 5.50005 2.70623C7.6688 2.68123 27.3813 2.70623 30.0657 2.70623C32.75 2.70623 34.0125 2.65311 34.7094 2.73123C35.4063 2.80936 37.0313 4.07186 37.0063 5.28436C36.9813 6.49686 36.775 20.8687 36.7469 25.5125V25.5156ZM26.3219 14.1125C22.9688 13.9562 21.6782 15.5562 21.6782 15.5562C21.8063 14.7312 21.4719 14.2656 21.0344 14.2656C20.5969 14.2656 17.2938 14.1625 16.5438 14.1875C15.7938 14.2125 15.4594 14.8312 15.4594 15.6312C15.4594 15.6312 15.0719 31.3719 15.175 32.2469C15.2782 33.125 15.5875 33.2781 16.1813 33.3312C16.775 33.3844 20.4907 33.4344 21.0063 33.3312C21.5219 33.2281 21.6 32.7625 21.6 32.3C21.6 31.8375 21.4719 25.2312 21.625 23.1406C21.7813 21.05 22.8125 20.1719 24.5157 20.2C26.2188 20.225 26.375 21.05 26.6844 22.8844C26.9938 24.7156 26.8907 29.9531 26.8907 31.3219C26.8907 32.6906 27.0469 33.1031 27.6375 33.2062C28.2313 33.3094 30.8875 33.4656 31.9469 33.2844C33.0063 33.1031 33.0813 32.7937 33.2375 32.15C33.3938 31.5062 33.675 26.0094 33.2125 21.2094C32.7469 16.4094 29.6782 14.2687 26.3219 14.1125ZM32.2313 32.1219L28.3875 32.0969C28.3875 32.0969 28.3875 25.1312 28.3094 22.9875C28.2313 20.8469 27.3563 19.1156 24.4907 19.1156C22.2469 19.1156 20.725 20.4562 20.6469 22.9594C20.5688 25.4625 20.5938 32.0937 20.5938 32.0937H17.2407L17.3688 16.0969L20.5157 16.1219C20.5157 16.1219 20.5407 17.1281 20.6719 17.2844C20.8 17.4406 21.55 17.5687 21.7563 17.4656C21.9625 17.3625 23.5375 16.0219 26.0907 16.0969C28.6438 16.175 32.2063 18.4437 32.2844 22.5219C32.3625 26.6 32.2313 32.1219 32.2313 32.1219ZM9.85942 5.88123C7.53755 5.82811 6.0938 7.89373 5.96255 9.98436C5.83442 12.075 7.4063 14.0625 9.96255 13.9594C12.5157 13.8562 13.7282 11.7406 13.8063 10.0375C13.8844 8.33436 12.9282 5.94998 9.85942 5.88436V5.88123ZM12.6188 10.0094C12.575 10.9594 11.8969 12.1437 10.4719 12.2C9.0438 12.2562 8.16567 11.1469 8.23755 9.98123C8.30942 8.81248 9.11567 7.65936 10.4157 7.68748C12.1313 7.72498 12.6657 9.05623 12.6219 10.0094H12.6188Z" fill="black"/>
<path d="M5.75624 3.73745C6.04687 3.70308 6.47812 4.3562 6.42812 4.45933C6.37812 4.56245 5.52499 4.97495 5.16249 5.69683C4.79999 6.4187 4.85312 7.39995 4.67187 7.50308C4.49062 7.6062 3.74374 7.34683 3.66562 6.90933C3.58749 6.47183 3.79374 5.54058 4.15624 4.87183C4.51874 4.19995 5.31874 3.78745 5.75624 3.73745Z" fill="black"/>
<path d="M3.97818 18.9375C4.00006 18.8312 4.99694 18.925 5.03756 19.0031C5.07819 19.0812 5.06256 24.9125 4.97194 24.975C4.88131 25.0375 4.09381 25.0531 3.97818 24.9375C3.86256 24.8218 3.95318 19.0687 3.97818 18.9375Z" fill="black"/>
<path d="M22.8376 34.3656C22.6814 34.2594 23.4407 33.4531 23.5782 33.4531C23.7157 33.4531 26.0376 35.2594 26.0376 35.3969C26.0376 35.5344 25.6595 35.725 25.5564 35.7406C25.4532 35.7562 22.9407 34.4344 22.8376 34.3656Z" fill="black"/>
<path d="M23.7344 32.6125C23.5751 32.4687 24.1657 31.7687 24.3188 31.7875C24.4719 31.8062 26.9344 33.6625 26.9344 33.8C26.9344 33.9375 26.6063 34.3844 26.4876 34.4187C26.3688 34.4531 23.9063 32.7687 23.7344 32.6125Z" fill="black"/>
<path d="M24.0938 30.9937C24.0157 30.9062 24.5063 30.1156 24.5938 30.1156C24.6813 30.1156 26.0563 31.1812 26.1251 31.3031C26.1938 31.425 25.9001 31.9062 25.7626 31.9406C25.6251 31.975 24.2313 31.15 24.0938 30.9937Z" fill="black"/>
<path d="M24.6969 29.275C24.5906 29.1562 25.1781 28.3969 25.2656 28.3969C25.3531 28.3969 26.075 29.1031 26.0906 29.2219C26.1063 29.3406 26.0906 29.9281 25.9344 29.9968C25.7781 30.0656 24.85 29.4468 24.6969 29.275Z" fill="black"/>
<path d="M31.3876 13.5875C31.2938 13.4937 31.8188 12.675 32.0063 12.675C32.1938 12.675 35.2907 14.9469 35.3251 15.05C35.3594 15.1531 35.1688 15.8062 35.0157 15.8594C34.8626 15.9125 31.6782 13.8812 31.3876 13.5875Z" fill="black"/>
<path d="M32.2126 12.0031C32.1345 11.8781 32.6095 11.1438 32.747 11.125C32.8845 11.1063 35.5001 13.0688 35.5501 13.2406C35.6001 13.4125 35.447 13.9625 35.3251 14.0156C35.2032 14.0688 32.4532 12.4 32.2126 12.0031Z" fill="black"/>
<path d="M32.7626 10.2156C32.6782 10.1312 33.1251 9.32184 33.2439 9.30309C33.3626 9.28434 35.6689 10.8 35.6876 10.9718C35.7064 11.1437 35.6689 11.8312 35.5501 11.8312C35.4314 11.8312 32.9876 10.4375 32.7626 10.2156Z" fill="black"/>
<path d="M33.2126 8.03126C33.1063 7.94376 33.5907 7.15314 33.747 7.15314C33.9032 7.15314 35.6907 8.30626 35.6907 8.52814C35.6907 8.75001 35.672 9.00939 35.5876 9.07814C35.5032 9.14689 33.4032 8.18439 33.2126 8.02814V8.03126Z" fill="black"/>
<path d="M33.6938 6.1375C33.5907 5.99062 33.9876 5.15625 34.1063 5.15625C34.2251 5.15625 35.6719 6.34375 35.7063 6.4625C35.7407 6.58125 35.7938 7.16875 35.6719 7.21875C35.5501 7.26875 33.9001 6.42812 33.6938 6.13437V6.1375Z" fill="black"/>
<path d="M34.0032 4.48747C34.0032 4.48747 34.2094 3.57497 34.4344 3.60935C34.6594 3.64372 35.8969 4.8656 35.9469 5.01872C35.9969 5.17185 36 5.5531 35.8438 5.63747C35.6875 5.72185 34.0563 4.58747 34.0032 4.48435V4.48747Z" fill="black"/>
</svg>
