<svg width="24" height="24" viewBox="0 0 24 24" fill="none" xmlns="http://www.w3.org/2000/svg">
<path d="M11.5219 3.32439C8.85561 3.20626 7.88249 5.94752 7.89749 7.42127C7.91249 8.89501 9.20811 11.3269 11.3756 11.4C13.5412 11.4731 15.2212 9.91126 15.2662 7.59752C15.3112 5.28376 13.6294 3.41814 11.5237 3.32439H11.5219ZM14.205 8.99814C12.7462 11.8706 9.60749 10.7513 9.00374 8.82189C9.00374 8.82189 8.64936 7.05376 10.1531 5.75626C11.6569 4.45877 12.8644 4.78314 12.8644 4.78314C12.8644 4.78314 15.6637 6.12376 14.205 8.99814ZM18.9637 8.51064C18.6994 3.35251 15.2156 0.55314 11.4787 0.75939C7.76624 0.96564 5.08311 3.38251 5.02499 8.68689C4.96686 13.9913 9.35624 23.4506 12.2756 23.2444C15.1931 23.0381 19.23 13.6669 18.9656 8.50877L18.9637 8.51064ZM12.1275 21.7144C9.71061 22.0088 5.76186 13.3744 5.61374 9.27751C5.46561 5.18064 7.38186 1.52626 11.4187 1.38001C14.6306 1.26189 17.8144 3.97314 17.7844 8.77689C17.7544 13.5806 14.5425 21.42 12.1256 21.7144H12.1275Z" fill="black"/>
<path d="M8.07376 3.64875C8.18064 3.58313 8.58939 3.94313 8.53126 4.03125C8.47314 4.11938 7.77939 4.75313 7.47001 5.37188C7.16064 5.99063 7.07251 6.87563 7.04251 6.91875C7.01251 6.96188 6.66001 6.96375 6.48189 6.80063C6.30376 6.6375 6.67314 5.445 7.01251 4.91438C7.35189 4.38375 7.95564 3.72 8.07376 3.64688V3.64875Z" fill="black"/>
<path d="M10.875 19.0181C10.8637 18.9581 11.3025 18.7088 11.3756 18.7088C11.4487 18.7088 12.495 20.4469 12.4368 20.625C12.3787 20.8031 12.0243 20.9044 11.9512 20.8894C11.8781 20.8744 10.905 19.1663 10.875 19.0181Z" fill="black"/>
<path d="M11.9213 18.4275C11.9081 18.3431 12.4519 18.2363 12.54 18.2513C12.6281 18.2663 13.395 19.8131 13.335 19.9163C13.275 20.0194 13.0106 20.1375 12.9375 20.1525C12.8644 20.1675 11.9494 18.6206 11.9213 18.4294V18.4275Z" fill="black"/>
<path d="M12.8344 17.7057C12.825 17.6607 13.2469 17.2932 13.32 17.3232C13.3931 17.3532 14.1019 18.7088 14.0719 18.7819C14.0419 18.855 13.8075 19.0763 13.7625 19.0763C13.7175 19.0763 12.8644 17.8538 12.8344 17.7057Z" fill="black"/>
<path d="M13.6443 16.8225C13.6443 16.7569 13.9987 16.4832 14.0718 16.4832C14.145 16.4832 14.6325 17.4263 14.6456 17.4994C14.6587 17.5725 14.5275 17.7788 14.4243 17.8088C14.3212 17.8388 13.6425 16.9838 13.6425 16.8207L13.6443 16.8225Z" fill="black"/>
<path d="M14.1169 15.0694C14.07 14.9607 14.5294 14.7019 14.6625 14.73C14.7956 14.76 15.3694 15.9825 15.3544 16.0707C15.3394 16.1588 15.2062 16.4532 15.09 16.4682C14.9737 16.4832 14.25 15.3769 14.1169 15.0675V15.0694Z" fill="black"/>
<path d="M14.8238 14.3606C14.8013 14.2444 15.0881 13.9481 15.2213 13.9931C15.3544 14.0381 15.9 14.7881 15.855 14.9213C15.81 15.0544 15.6188 15.2456 15.5606 15.2456C15.5025 15.2456 14.8688 14.5819 14.8238 14.3606Z" fill="black"/>
<path d="M15.3393 13.4625C15.3131 13.3913 15.6037 13.1381 15.6937 13.1231C15.7837 13.1081 16.2974 13.6388 16.2543 13.7569C16.2112 13.875 16.1062 13.9931 15.9899 14.0213C15.8737 14.0494 15.4012 13.6238 15.3412 13.4606L15.3393 13.4625Z" fill="black"/>
<path d="M15.8981 12.4012C15.8343 12.3187 16.0462 12.0469 16.1493 12.0469C16.2525 12.0469 16.7231 12.4294 16.7531 12.5475C16.7831 12.6656 16.5618 12.93 16.4587 12.945C16.3556 12.96 16.0012 12.5325 15.8981 12.3994V12.4012Z" fill="black"/>
<path d="M16.1944 11.34C16.1344 11.1581 16.3125 10.9425 16.4306 10.9425C16.5488 10.9425 16.755 11.1488 16.6219 11.325C16.4888 11.5013 16.2394 11.4731 16.1944 11.34Z" fill="black"/>
</svg>
