<svg width="24" height="24" viewBox="0 0 24 24" fill="none" xmlns="http://www.w3.org/2000/svg">
<path d="M16.8844 21.3367C18.2682 21.0067 20.1038 19.9735 20.8069 19.3548C21.5082 18.736 21.9432 18.0948 21.8176 17.5998C21.6938 17.1048 21.0957 16.2367 19.7119 14.8548C18.3282 13.471 17.2557 12.5635 16.9876 12.3985C16.7194 12.2335 16.5132 12.151 15.7276 12.1923C14.9419 12.2335 14.4676 12.316 13.3126 13.4729C12.1557 14.6298 12.4463 15.5373 12.4463 15.5373C12.4463 15.5373 11.6419 14.9392 10.6707 13.8235C9.70132 12.7079 9.53444 11.6148 9.53444 11.6148C9.53444 11.6148 10.0088 11.4292 10.7738 10.7898C11.5369 10.1504 12.1369 9.44729 12.4876 8.93166C12.8382 8.41604 12.7144 7.83854 12.2194 7.27979C12.2194 7.27979 11.3532 6.20729 10.2582 5.21541C9.16507 4.22541 7.86382 2.92416 7.34819 2.63541C6.83257 2.34666 6.25506 2.42916 5.57257 2.98604C4.89006 3.54291 2.04194 4.90604 2.16569 9.19979C2.28944 13.4935 3.98256 15.1042 6.50069 17.416C9.01881 19.7279 12.1369 20.9054 13.2507 21.2148C14.3644 21.5242 15.5007 21.6685 16.8844 21.3385V21.3367ZM15.1951 13.3773C15.6563 13.0004 16.0726 12.8167 16.4963 12.9667C17.1469 13.1992 18.5082 14.3917 19.7007 15.7529C20.8932 17.116 21.4651 17.8435 20.7994 18.5542C20.7338 18.6235 20.6494 18.7004 20.5557 18.7792C20.2913 18.3854 19.5076 17.2885 18.0601 15.8279C16.7063 14.4629 15.6526 13.6848 15.1951 13.3735V13.3773ZM5.92319 3.91604C6.35631 3.54479 6.68632 2.96729 7.12132 3.23541C7.55444 3.50354 8.93819 4.80479 10.1963 6.02166C11.4563 7.24041 12.1369 8.14791 12.0751 8.41604C12.0432 8.55104 11.7413 8.94104 11.3382 9.36479C11.0401 9.01979 10.2001 8.09916 8.72631 6.80541C7.33319 5.58479 6.11257 4.65104 5.56507 4.24416C5.68131 4.13354 5.79944 4.02291 5.92506 3.91604H5.92319ZM9.56069 18.4473C7.54881 17.0392 5.67569 15.4285 4.25069 12.3948C2.98882 9.70416 3.18756 6.91416 5.10382 4.72604C5.55382 5.03916 6.67881 5.85479 8.24444 7.20854C9.85507 8.60166 10.5826 9.52791 10.8244 9.86541C10.5526 10.1129 10.2694 10.3398 10.0088 10.501C9.14256 11.0373 8.93631 11.1404 8.62506 10.9342C8.31382 10.7279 7.96507 10.5835 7.82069 10.7898C7.67631 10.996 7.92382 11.326 8.19194 11.4704C8.46006 11.6148 8.89319 11.7385 8.89319 11.7385C8.89319 11.7385 9.01694 13.0398 10.5863 14.6898C12.1557 16.3417 13.2076 16.7748 13.4344 16.6923C13.6613 16.6098 13.7438 16.2179 13.6407 16.0529C13.5376 15.8879 13.5994 14.9635 14.4038 14.1273C14.4919 14.0354 14.5782 13.9492 14.6626 13.8648C15.0507 14.1385 16.2469 15.016 17.7638 16.4185C19.1513 17.701 19.7513 18.7604 19.9688 19.2142C18.9713 19.8779 17.4338 20.6185 16.2638 20.8004C14.6701 21.0479 11.5726 19.8554 9.56069 18.4473Z" fill="black"/>
<path d="M6.99007 3.72478C7.12882 3.70603 7.74945 4.28166 8.25945 4.71478C8.76945 5.14791 9.40507 5.73666 9.42007 5.86041C9.43507 5.98416 9.15757 6.27853 9.03382 6.27853C8.91007 6.27853 8.27445 5.44228 7.71757 5.00916C7.1607 4.57603 6.72757 4.29666 6.63382 4.14291C6.54007 3.98916 6.75757 3.75666 6.99007 3.72478Z" fill="black"/>
<path d="M4.93129 7.34729C5.10191 7.19542 5.52004 7.53292 5.42629 7.71854C5.33254 7.90417 4.37441 8.84917 4.21879 8.83229C4.06316 8.81542 3.95629 8.50792 3.97129 8.35229C3.98629 8.19667 4.79254 7.46917 4.93129 7.34542V7.34729Z" fill="black"/>
<path d="M5.50502 8.19853C5.67564 8.04666 6.09377 8.38416 6.00002 8.56978C5.90627 8.75541 4.6219 10.0717 4.46815 10.0567C4.3144 10.0417 4.20565 9.73228 4.22065 9.57666C4.23565 9.42103 5.36627 8.32228 5.50502 8.19853Z" fill="black"/>
<path d="M5.73756 9.82416C5.90819 9.67228 6.32631 10.0098 6.23256 10.1954C6.13881 10.381 4.94819 11.5585 4.79256 11.5417C4.63694 11.5248 4.53006 11.2173 4.54506 11.0617C4.56006 10.906 5.59694 9.94791 5.73756 9.82228V9.82416Z" fill="black"/>
<path d="M6.032 11.0167C6.20262 10.8648 6.62075 11.2023 6.527 11.3879C6.43325 11.5735 5.38137 12.5804 5.22575 12.5654C5.07012 12.5504 4.96325 12.241 4.97825 12.0854C4.99325 11.9298 5.89137 11.1404 6.03012 11.0167H6.032Z" fill="black"/>
<path d="M6.69752 12.271C6.86815 12.1192 7.28627 12.4567 7.19252 12.6423C7.09877 12.8279 6.10877 13.9885 5.95315 13.9735C5.79752 13.9585 5.69065 13.6492 5.70565 13.4935C5.72065 13.3379 6.5569 12.3948 6.69565 12.271H6.69752Z" fill="black"/>
<path d="M7.17751 13.3998C7.34813 13.2479 7.76626 13.5854 7.67251 13.771C7.57876 13.9567 7.03688 14.5454 6.88313 14.5304C6.72938 14.5154 6.52688 14.2979 6.54188 14.1442C6.55688 13.9904 7.03688 13.5254 7.17751 13.4017V13.3998Z" fill="black"/>
<path d="M15.5532 18.4004C15.7239 18.2485 16.142 18.586 16.0482 18.7717C15.9545 18.9573 14.9645 20.3204 14.8089 20.3035C14.6532 20.2867 14.4526 20.071 14.4676 19.9173C14.4826 19.7635 15.4126 18.5242 15.5514 18.4004H15.5532Z" fill="black"/>
<path d="M16.3425 18.7735C16.5132 18.6217 16.9313 18.9592 16.8375 19.1448C16.7438 19.3304 16.0482 20.476 15.8925 20.461C15.7369 20.446 15.5363 20.2285 15.5513 20.0748C15.5663 19.9192 16.2019 18.8973 16.3407 18.7735H16.3425Z" fill="black"/>
<path d="M17.3025 19.051C17.4731 18.8992 17.8913 19.2367 17.7975 19.4223C17.7038 19.6079 17.3644 20.2117 17.2088 20.1967C17.0531 20.1817 16.8525 19.9642 16.8675 19.8104C16.8825 19.6567 17.1619 19.1748 17.3006 19.051H17.3025Z" fill="black"/>
<path d="M18.2926 19.0978C18.4632 18.9459 18.8814 19.2834 18.7876 19.4691C18.6939 19.6547 18.5701 19.9022 18.4164 19.8872C18.2626 19.8722 18.0601 19.6547 18.0751 19.5009C18.0901 19.3472 18.152 19.2216 18.2926 19.0978Z" fill="black"/>
</svg>
