<svg width="40" height="40" viewBox="0 0 40 40" fill="none" xmlns="http://www.w3.org/2000/svg">
<path d="M33.9281 10.7156C33.1812 10.5344 32.1468 10.7687 29.9031 9.11561C27.6593 7.46561 26.8312 4.96248 26.6531 4.36873C26.4718 3.77498 26.2406 2.79373 25.75 2.76873C25.2593 2.74373 22.1375 2.61248 21.4156 2.69061C20.6937 2.76873 20.5125 3.25936 20.4625 4.03123C20.4093 4.80623 20.6187 22.9437 20.6187 24.3125C20.6187 25.6812 19.8968 27.3844 18.7625 28.7C17.6281 30.0156 12.6218 30.7656 12.8031 25.7844C12.9843 20.8031 17.9375 21.1656 18.0656 21.1406C18.1937 21.1156 18.2968 16.5469 18.2968 16.2906C18.2968 16.0344 16.9125 14.675 16.5437 14.6656C6.97185 14.4344 4.64997 22.3812 5.06247 26.2781C5.47497 30.175 8.59685 36.9344 15.875 37.3219C23.15 37.7094 26.5843 31.5687 27.1 28.2406C27.6156 24.9125 26.8937 15.9062 26.8937 15.9062C26.8937 15.9062 28.8281 17.3781 31.6156 17.9437C34.4031 18.5125 34.8156 17.5312 34.8937 17.2469C34.9718 16.9625 34.9718 12.6031 34.9968 12.2406C35.0218 11.8781 34.6875 10.9 33.9375 10.7187L33.9281 10.7156ZM33.3093 15.6156C33.3093 15.6156 31.7625 15.875 29.2843 15.2281C26.8062 14.5844 26.525 13.8094 26.2656 13.7562C26.0062 13.7031 25.3375 14.2469 25.3625 14.4281C25.3875 14.6094 25.3375 24.6969 25.2843 26.6844C25.2312 28.6719 22.6281 35.7656 15.8156 35.2781C9.0031 34.7875 6.00935 28.9562 6.00935 25.8594C6.00935 22.7625 7.76247 15.5375 16.125 15.6406L16.2031 19.5125C16.2031 19.5125 10.9906 19.875 10.6812 24.7C10.3718 29.525 13.2625 31.3062 15.6093 31.15C17.9562 30.9937 21.5968 28.9312 21.5687 25.6812C21.5437 22.4312 21.5156 3.98123 21.5156 3.98123L25.5156 4.00623C25.5156 4.00623 25.9281 7.18123 28.5093 9.32186C31.0906 11.4625 33.3093 11.6969 33.3093 11.6969V15.6187V15.6156Z" fill="black"/>
<path d="M10.7343 17.8875C10.9468 17.8281 11.4562 18.5312 11.3031 18.7656C11.15 19 10.0375 19.5656 9.47184 20.4687C8.90309 21.3718 8.62184 22.7656 8.54372 22.8437C8.46559 22.9218 7.56247 22.8687 7.45934 22.7656C7.35622 22.6625 7.94997 20.7 8.62184 19.7718C9.29372 18.8437 10.4531 17.9656 10.7375 17.8875H10.7343Z" fill="black"/>
<path d="M22.4468 5.4156C22.4905 5.3406 23.3749 5.1906 23.428 5.38122C23.4812 5.57185 23.4968 8.8906 23.3937 8.97497C23.2905 9.05935 22.6374 9.09685 22.5343 9.0281C22.4312 8.95935 22.328 5.62185 22.4468 5.4156Z" fill="black"/>
<path d="M28.8813 13.0375C28.7719 12.7281 29.5344 12.4 29.7407 12.4531C29.9469 12.5062 31.2375 14.2593 31.2032 14.4843C31.1688 14.7093 30.5157 14.725 30.3782 14.725C30.2407 14.725 28.9844 13.3312 28.8813 13.0406V13.0375Z" fill="black"/>
<path d="M30.5156 12.3156C30.3781 12.125 31.0843 11.85 31.4093 11.8843C31.7343 11.9187 32.6812 13.6375 32.6312 13.8625C32.5812 14.0875 32.3031 14.5 32.0968 14.4468C31.8906 14.3937 30.6875 12.5531 30.5156 12.3125V12.3156Z" fill="black"/>
<path d="M15.7219 32.475C15.7063 32.3281 16.4969 32.2156 16.6688 32.2688C16.8407 32.3219 17.6313 33.9719 17.6157 34.1625C17.6 34.3531 17.1157 34.4031 16.8407 34.3188C16.5657 34.2313 15.7407 32.6344 15.7219 32.4781V32.475Z" fill="black"/>
<path d="M17.4594 31.8718C17.4812 31.625 18.25 31.3218 18.4406 31.3906C18.6312 31.4593 19.9187 33.5062 19.8344 33.7125C19.75 33.9187 19.3531 34.0406 19.0781 33.9531C18.8031 33.8656 17.4437 32.0781 17.4625 31.8718H17.4594Z" fill="black"/>
<path d="M19.0406 31.0125C19.0406 30.7281 19.8313 30.4437 20.0906 30.4625C20.35 30.4812 21.5 32.2156 21.3281 32.5094C21.1563 32.8031 20.8469 32.9062 20.5531 32.7344C20.2594 32.5625 19.0406 31.1687 19.0406 31.0156V31.0125Z" fill="black"/>
<path d="M20.5719 29.6375C20.5688 29.5656 21.2782 29.0531 21.5188 29.1219C21.7594 29.1906 22.7907 30.6344 22.775 30.825C22.7594 31.0156 22.5157 31.2219 22.1375 31.2375C21.7594 31.2531 20.5907 29.9125 20.5719 29.6375Z" fill="black"/>
<path d="M21.7406 28.3125C21.7219 28.0968 22.3438 27.7437 22.4969 27.7281C22.65 27.7125 24.0781 29.2062 24.0625 29.3968C24.0469 29.5875 23.5469 30.0343 23.4438 30.0343C23.3406 30.0343 21.7594 28.5031 21.7406 28.3156V28.3125Z" fill="black"/>
<path d="M22.55 26.4531C22.4031 26.1812 23.2906 25.7312 23.4781 25.8156C23.6656 25.9 24.5438 26.8125 24.4938 26.9844C24.4438 27.1562 24.1156 27.6219 23.8906 27.5875C23.6656 27.5531 22.6688 26.675 22.55 26.4531Z" fill="black"/>
<path d="M23.1 24.5968C23.0531 24.3625 23.5313 23.9937 23.7875 23.9937C24.0438 23.9937 24.3563 24.3906 24.3906 24.6312C24.425 24.8718 24.4938 25.1125 24.2875 25.2156C24.0813 25.3187 23.1875 25.025 23.1 24.5968Z" fill="black"/>
</svg>
