<svg width="58" height="74" viewBox="0 0 58 74" fill="none" xmlns="http://www.w3.org/2000/svg">
<mask id="mask0_1260_3812" style="mask-type:luminance" maskUnits="userSpaceOnUse" x="0" y="0" width="58" height="74">
<path d="M57.0851 0H0V73.7917H57.0851V0Z" fill="white"/>
</mask>
<g mask="url(#mask0_1260_3812)">
<path d="M17.5751 38.5702V52.2882C17.5751 53.0532 16.9426 53.6822 16.1733 53.6822C15.9168 53.6822 15.6775 53.6141 15.4552 53.4781L11.8649 51.3363C10.805 50.7073 10.1553 49.5684 10.1553 48.3445V42.5139C10.1553 41.2901 9.50564 40.1511 8.44563 39.5222L1.70965 35.4765C0.649666 34.8475 0 33.7086 0 32.4846V1.39389C0 0.628953 0.615473 0 1.40191 0C1.65836 0 1.93191 0.0679927 2.15416 0.203978L4.61605 1.73387C5.64184 2.37982 6.2744 3.50174 6.2744 4.70865V27.844C6.2744 29.0679 6.92407 30.2068 7.98406 30.8358L15.8997 35.5614C16.9255 36.2074 17.5751 37.3463 17.5751 38.5702Z" stroke="black" stroke-width="2" stroke-miterlimit="10"/>
<path d="M25.2686 13.99L11.523 5.77958C10.8563 5.38864 10.0014 5.59261 9.60818 6.25553C9.47142 6.47651 9.40308 6.71457 9.40308 6.96955V23.4753C9.40308 24.6992 10.0527 25.8382 11.1127 26.4671L19.0113 31.1928C20.0712 31.8217 20.7209 32.9607 20.7209 34.1846V69.1171C20.7209 70.341 21.3706 71.4798 22.4305 72.1088L24.8583 73.5537C25.525 73.9446 26.3799 73.7407 26.773 73.0777C26.9099 72.8568 26.9782 72.6188 26.9782 72.3638V16.9648C26.9782 15.7749 26.3286 14.6359 25.2686 13.99Z" stroke="black" stroke-width="2" stroke-miterlimit="10"/>
<path d="M39.5099 38.5702V52.2882C39.5099 53.0532 40.1425 53.6822 40.9118 53.6822C41.1682 53.6822 41.4076 53.6141 41.6299 53.4781L45.2202 51.3363C46.2801 50.7073 46.9298 49.5684 46.9298 48.3445V42.531C46.9298 41.307 47.5795 40.1681 48.6394 39.5392L55.3755 35.5104C56.4355 34.8815 57.0851 33.7425 57.0851 32.5186V1.39389C57.0851 0.628953 56.4696 0 55.6832 0C55.4096 0 55.1532 0.0679927 54.9309 0.203978L52.469 1.73387C51.4433 2.37982 50.8107 3.50174 50.8107 4.70865V27.844C50.8107 29.0679 50.161 30.2068 49.1011 30.8358L41.2025 35.5614C40.1767 36.2074 39.5099 37.3463 39.5099 38.5702Z" stroke="black" stroke-width="2" stroke-miterlimit="10"/>
<path d="M31.8166 13.99L45.5621 5.77957C46.2289 5.37163 47.0837 5.59261 47.494 6.2386C47.6308 6.45958 47.6992 6.71456 47.6992 6.96954V23.4753C47.6992 24.6993 47.0496 25.8382 45.9895 26.4671L38.091 31.1928C37.031 31.8217 36.3813 32.9607 36.3813 34.1846V69.117C36.3813 70.3409 35.7317 71.4798 34.6717 72.1088L32.244 73.5537C31.5772 73.9447 30.7224 73.7406 30.3292 73.0777C30.1924 72.8567 30.124 72.6188 30.124 72.3638L30.1069 16.9988C30.1069 15.7749 30.7566 14.6359 31.8166 13.99Z" stroke="black" stroke-width="2" stroke-miterlimit="10"/>
</g>
</svg>
