<svg width="40" height="40" viewBox="0 0 40 40" fill="none" xmlns="http://www.w3.org/2000/svg">
<path d="M25.8718 19.725C25.4312 19.3094 18.1468 14.5031 17.0437 13.9875C15.9406 13.4719 15.0093 14.0844 15.0343 15.2875C15.0343 15.2875 14.8125 24.4844 14.8125 25.7094C14.8125 26.9344 16.4562 26.8125 17.6562 26.0281C18.8562 25.2438 25.4531 21.6375 25.9937 21.1C26.5343 20.5594 26.3125 20.1438 25.8718 19.7281V19.725ZM16.675 25.4406V16.6125C16.675 16.3438 16.9687 16.2438 16.9687 16.2438L24.7187 20.8781L16.675 25.4406ZM38.7437 15.5813C38.6937 12.3188 38.2781 10.4563 35.875 8.91251C33.4718 7.36876 31.0437 7.22189 25.0593 6.55939C19.075 5.89689 12.9937 6.11876 8.06558 6.53439C3.13745 6.95001 2.19683 10.5781 1.90933 13.375C1.71245 15.2875 1.24683 21.7625 1.24683 24.2625C1.24683 26.7625 1.61558 29.4375 2.96245 31.0813C4.31245 32.725 6.07808 33.4344 10.05 33.6563C14.0218 33.8781 22.85 33.95 29.6437 33.7313C36.4375 33.5094 37.7125 30.1031 38.0781 28.2625C38.4468 26.4219 38.7906 18.8469 38.7406 15.5844L38.7437 15.5813ZM36.3187 27.5C36.0968 29.3156 33.8906 31.1781 29.9906 31.5469C26.0906 31.9156 17.6062 31.9406 12.9718 31.7906C8.33745 31.6438 5.66245 30.9563 4.53745 30.2688C3.40933 29.5813 2.40308 28.3063 2.2562 24.4313C2.10933 20.5563 2.49995 15.3094 2.99058 12.7344C3.4812 10.1594 4.58433 7.85314 9.8812 7.41251C13.6531 7.09689 19.8125 7.26564 24.8656 7.65626C29.9187 8.05001 33.2999 8.78439 34.7718 9.49689C36.2437 10.2094 37.175 12.9531 37.125 15.725C37.075 18.4969 36.5375 25.6813 36.3156 27.4969L36.3187 27.5Z" fill="black"/>
<path d="M7.06251 8.91251C7.33751 8.90314 7.55314 9.57501 7.45626 9.79689C7.35939 10.0188 6.55001 9.70001 5.74064 10.7281C4.93126 11.7594 5.07814 12.5906 4.88126 12.7875C4.68439 12.9844 4.04689 13.0313 4.02189 12.5906C3.99689 12.15 4.21876 11.0688 4.95314 10.0906C5.68751 9.10939 6.25314 8.93751 7.06251 8.91251Z" fill="black"/>
<path d="M4.38751 26.9375C4.18751 26.5907 4.78126 26.1782 5.02501 26.3C5.26876 26.4219 7.69689 29.2188 7.72189 29.4875C7.74689 29.7563 7.37814 30.1 7.18126 30.075C6.98439 30.05 4.65626 27.4032 4.38439 26.9375H4.38751Z" fill="black"/>
<path d="M6.81562 26.225C6.73437 26.0187 7.35625 25.6375 7.575 25.6844C7.79375 25.7312 10.9094 29.4844 10.9344 29.7312C10.9594 29.9781 10.2969 30.3187 10.175 30.2469C10.0531 30.175 7.0375 26.7906 6.81562 26.225Z" fill="black"/>
<path d="M10.4719 27.7219C10.4187 27.5312 11.0844 27.0844 11.3781 27.1812C11.6719 27.2781 12.5313 28.6281 12.3844 28.825C12.2375 29.0219 11.7719 29.1687 11.65 29.0687C11.5281 28.9687 10.5469 27.9906 10.4719 27.7187V27.7219Z" fill="black"/>
<path d="M27.7843 28.6531C27.7718 28.5281 28.2749 28.1375 28.6687 28.2844C29.0624 28.4313 30.5093 30.3938 30.4093 30.5406C30.3093 30.6875 29.8218 30.7625 29.5249 30.6875C29.2312 30.6125 27.8093 28.8719 27.7843 28.6531Z" fill="black"/>
<path d="M29.5499 27.7469C29.5155 27.4625 30.0155 27.1594 30.3593 27.2812C30.703 27.4031 32.3218 29.2437 32.2468 29.4625C32.1718 29.6812 31.878 29.9281 31.6343 29.8062C31.3905 29.6844 29.5749 27.9437 29.5499 27.7469Z" fill="black"/>
<path d="M31.1187 26.7156C31.0187 26.575 31.4624 25.9313 31.8312 26.1531C32.1999 26.375 33.5718 28.0406 33.6468 28.4344C33.7218 28.8281 33.6968 29.0469 33.3531 29.0719C33.0093 29.0969 31.2437 26.8906 31.1218 26.7188L31.1187 26.7156Z" fill="black"/>
<path d="M32.2468 24.875C32.1624 24.6656 32.6624 24.1156 32.8593 24.2125C33.0562 24.3094 35.1156 26.8625 35.1156 27.1063C35.1156 27.35 34.9187 27.5469 34.7468 27.5469C34.5749 27.5469 32.4406 25.3656 32.2468 24.875Z" fill="black"/>
<path d="M32.5156 22.5219C32.3374 22.2187 32.8843 21.6875 33.1031 21.6875C33.3218 21.6875 35.5312 24.0156 35.6031 24.2625C35.6749 24.5094 35.6281 24.925 35.2843 24.9969C34.9406 25.0719 32.6843 22.8156 32.5124 22.5187L32.5156 22.5219Z" fill="black"/>
<path d="M33.4718 20.9031C33.2468 20.6125 33.8406 20.1906 34.0843 20.1906C34.3281 20.1906 35.6062 21.5156 35.7281 21.9312C35.85 22.3469 35.7531 22.5687 35.5812 22.6437C35.4093 22.7187 33.6437 21.1219 33.4718 20.9031Z" fill="black"/>
<path d="M34.2812 19.2594C34.15 18.9656 34.575 18.5 34.7969 18.525C35.0187 18.55 35.7281 19.2594 35.7531 19.4313C35.7781 19.6031 35.85 20.1656 35.6562 20.2656C35.4625 20.3656 34.3812 19.4813 34.2844 19.2594H34.2812Z" fill="black"/>
<path d="M34.553 17.225C34.4187 17.05 34.603 16.4656 34.8718 16.4406C35.1405 16.4156 35.828 16.9812 35.878 17.275C35.928 17.5687 35.9749 17.9875 35.803 18.1094C35.6312 18.2312 34.7249 17.4469 34.553 17.225Z" fill="black"/>
</svg>
