<svg width="24" height="24" viewBox="0 0 24 24" fill="none" xmlns="http://www.w3.org/2000/svg">
<g clip-path="url(#clip0_927_8257)">
<path fill-rule="evenodd" clip-rule="evenodd" d="M23.89 6.90995C23.8736 5.18693 23.7467 3.46673 23.51 1.75995C23.4665 1.48442 23.3567 1.22359 23.19 0.999952C22.8205 0.714942 22.3825 0.532158 21.92 0.469952C18.5858 0.0306928 15.2206 -0.126531 11.86 -4.79557e-05C8.51535 0.00673402 5.17478 0.233893 1.86 0.679952C1.40221 0.730287 0.968421 0.910742 0.61 1.19995C0.2 1.78995 0 5.57995 0 9.83995C0 15.53 0.37 22.05 0.72 22.74C0.997803 23.0631 1.38682 23.2701 1.81 23.32C4.41277 23.7348 7.04439 23.9421 9.68 23.94C13.42 24.03 17.53 23.94 20.14 23.75C21.0941 23.7254 22.0386 23.5534 22.94 23.24C23.2996 23.005 23.5651 22.651 23.69 22.24C23.8948 21.5519 23.9992 20.8379 24 20.12C24 18.86 24.06 12 23.89 6.90995ZM22.82 20.1C22.8324 20.5451 22.8022 20.9905 22.73 21.43C22.67 21.76 22.6 22.11 22.36 22.25C21.7488 22.4475 21.1122 22.5553 20.47 22.57C18.39 22.77 15.12 22.87 11.86 22.87C8.64009 22.9457 5.41884 22.7954 2.22 22.42C1.98563 22.3737 1.755 22.3102 1.53 22.23C1.18 21.29 0.82 15.23 0.73 9.82995C0.65 5.75995 0.73 2.12995 1.11 1.58995C1.18 1.48995 1.49 1.45995 1.94 1.37995C5.23517 0.990805 8.55221 0.817103 11.87 0.859952C14.8081 0.80549 17.7468 0.92905 20.67 1.22995C21.289 1.25542 21.8985 1.39086 22.47 1.62995C22.5364 1.90677 22.5865 2.18725 22.62 2.46995C22.74 3.46995 22.81 5.08995 22.85 6.93995C23 12 22.86 18.84 22.82 20.1Z" fill="#4D7CCE"/>
<path fill-rule="evenodd" clip-rule="evenodd" d="M18.1403 5.18999C18.072 5.18882 18.005 5.20823 17.9479 5.24569C17.8908 5.28314 17.8464 5.33691 17.8203 5.39999L17.4003 5.99999C16.5803 7.14999 14.7503 9.53999 13.0203 11.89C11.7903 13.56 10.6203 15.2 9.81028 16.26C9.56605 16.6481 9.29541 17.019 9.00028 17.37C9.00028 17.37 8.89028 17.37 8.81028 17.37C8.63477 17.2934 8.46729 17.1996 8.31028 17.09C7.49532 16.4319 6.7573 15.6838 6.11028 14.86C5.88028 14.58 5.75028 14.27 5.52028 14.47C5.35028 14.47 5.18028 14.62 5.33028 14.84L5.49028 15.07C6.02522 15.8518 6.62036 16.5907 7.27028 17.28C7.6279 17.6892 8.05857 18.0283 8.54028 18.28C8.7004 18.3512 8.87578 18.3811 9.05045 18.3671C9.22511 18.3532 9.39351 18.2957 9.54028 18.2C10.1652 17.6177 10.7344 16.9783 11.2403 16.29C11.8803 15.48 12.6403 14.46 13.4103 13.37C15.2203 10.83 17.1003 7.91999 17.9603 6.55999C18.1757 6.25027 18.3504 5.91419 18.4803 5.55999C18.4844 5.51289 18.4788 5.46543 18.4635 5.42065C18.4483 5.37587 18.424 5.33476 18.392 5.29994C18.36 5.26511 18.321 5.23735 18.2777 5.21842C18.2344 5.19949 18.1876 5.18981 18.1403 5.18999Z" fill="#4D7CCE"/>
</g>
<defs>
<clipPath id="clip0_927_8257">
<rect width="24" height="24" fill="white"/>
</clipPath>
</defs>
</svg>
