<svg width="24" height="24" viewBox="0 0 24 24" fill="none" xmlns="http://www.w3.org/2000/svg">
<g clip-path="url(#clip0_884_5773)">
<path fill-rule="evenodd" clip-rule="evenodd" d="M23.89 6.90995C23.8736 5.18693 23.7467 3.46673 23.51 1.75995C23.4665 1.48442 23.3567 1.22359 23.19 0.999952C22.8205 0.714942 22.3825 0.532158 21.92 0.469952C18.5858 0.0306928 15.2206 -0.126531 11.86 -4.79557e-05C8.51535 0.00673402 5.17478 0.233893 1.86 0.679952C1.40221 0.730287 0.968421 0.910742 0.61 1.19995C0.2 1.78995 0 5.57995 0 9.83995C0 15.53 0.37 22.05 0.72 22.74C0.997803 23.0631 1.38682 23.2701 1.81 23.32C4.41277 23.7348 7.04439 23.9421 9.68 23.94C13.42 24.03 17.53 23.94 20.14 23.75C21.0941 23.7254 22.0386 23.5534 22.94 23.24C23.2996 23.005 23.5651 22.651 23.69 22.24C23.8948 21.5519 23.9992 20.8379 24 20.12C24 18.86 24.06 12 23.89 6.90995ZM22.82 20.1C22.8324 20.5451 22.8022 20.9905 22.73 21.43C22.67 21.76 22.6 22.11 22.36 22.25C21.7488 22.4475 21.1122 22.5553 20.47 22.57C18.39 22.77 15.12 22.87 11.86 22.87C8.64009 22.9457 5.41884 22.7954 2.22 22.42C1.98563 22.3737 1.755 22.3102 1.53 22.23C1.18 21.29 0.82 15.23 0.73 9.82995C0.65 5.75995 0.73 2.12995 1.11 1.58995C1.18 1.48995 1.49 1.45995 1.94 1.37995C5.23517 0.990805 8.55221 0.817103 11.87 0.859952C14.8081 0.80549 17.7468 0.92905 20.67 1.22995C21.289 1.25542 21.8985 1.39086 22.47 1.62995C22.5364 1.90677 22.5865 2.18725 22.62 2.46995C22.74 3.46995 22.81 5.08995 22.85 6.93995C23 12 22.86 18.84 22.82 20.1Z" fill="black"/>
</g>
<defs>
<clipPath id="clip0_884_5773">
<rect width="24" height="24" fill="white"/>
</clipPath>
</defs>
</svg>
