<svg width="24" height="24" viewBox="0 0 24 24" fill="none" xmlns="http://www.w3.org/2000/svg">
<g clip-path="url(#clip0_606_922)">
<path d="M7.18928 20.2023H5.79188C5.35818 20.2023 4.82818 20.2023 4.39448 20.2601C3.26698 20.3469 2.19718 20.4914 1.11778 20.6167C0.931483 20.622 0.784783 20.7773 0.790183 20.9636C0.795383 21.15 0.950784 21.2967 1.13708 21.2913C2.22608 21.3491 3.33438 21.4359 4.39448 21.4744H5.78228C6.20628 21.4744 6.74598 21.407 7.17008 21.407C9.29988 21.407 9.32878 20.4432 8.76018 20.2698C8.23968 20.1998 7.71388 20.1772 7.18928 20.2023Z" fill="#4D7CCE"/>
<path d="M7.44805 12.5698C7.85285 12.6469 11.303 12.6372 13.3172 12.7143C14.8495 12.7818 16.3818 12.8107 17.9141 12.8203C19.4464 12.8299 21.2294 12.8203 22.887 12.6854C23.0961 12.6802 23.2629 12.5091 23.2628 12.2999C23.2525 12.0893 23.0786 11.9238 22.8677 11.9241C20.9402 11.9241 18.9357 11.7217 16.9697 11.606C15.659 11.5193 14.3291 11.4518 13.0088 11.4518C11.1208 11.4808 9.23575 11.6095 7.36135 11.8373C7.03365 11.9048 7.10115 12.5119 7.44805 12.5698Z" fill="#7196D8"/>
<path d="M17.8949 20.4626C17.7123 20.4625 17.5628 20.6078 17.5576 20.7903C17.5576 20.9766 17.7086 21.1276 17.8949 21.1276C18.5309 21.224 19.1381 21.3492 19.7741 21.4167H20.5837H21.3932C22.0196 21.3589 22.6364 21.2625 23.3207 21.195C23.6137 21.1483 23.7462 20.8018 23.5592 20.5714C23.4994 20.4977 23.4144 20.4487 23.3207 20.4337C22.6846 20.3662 22.0678 20.2602 21.3932 20.212H20.5837C20.3142 20.1928 20.0436 20.1928 19.7741 20.212C19.1381 20.2409 18.5309 20.3662 17.8949 20.4626Z" fill="#7196D8"/>
<path d="M6.71552 3.48163H5.32772C4.90372 3.48163 4.36402 3.48163 3.93032 3.53943C2.84132 3.63583 1.77162 3.78033 0.692221 3.90563C0.432521 3.90423 0.268721 4.18443 0.397321 4.41003C0.457721 4.51583 0.570421 4.58093 0.692221 4.58023C1.78122 4.63813 2.85102 4.73443 3.94002 4.76343H5.33742C5.77112 4.76343 6.30112 4.69593 6.72522 4.69593C8.85502 4.69593 8.88392 3.73223 8.31532 3.56833C7.78652 3.48393 7.25032 3.45493 6.71552 3.48163Z" fill="#7196D8"/>
<path d="M9.75115 20.337C9.71935 20.6172 9.73565 20.9008 9.79925 21.1755C10.1944 23.2282 11.7267 23.9896 13.0759 23.7004C16.6803 22.9295 16.4683 15.8557 12.1797 17.1085C10.773 17.5686 9.80315 18.8579 9.75115 20.337ZM12.9025 22.6018C11.9387 22.7271 11.0617 22.1296 10.975 20.6743C10.8235 19.5614 11.4641 18.4923 12.517 18.1012C15.5913 17.0025 15.7358 22.2645 12.9025 22.6018Z" fill="#4D7CCE"/>
<path d="M0.847297 12.6839C1.1075 15.0451 2.7748 15.8739 4.23 15.5751C5.5885 15.267 6.5647 14.0764 6.6008 12.6839C6.755 10.6986 6.3695 8.14477 3.3337 9.03137C1.7618 9.52977 0.734597 11.0387 0.847297 12.6839ZM5.9647 11.9997C6.0801 13.2017 5.2322 14.2829 4.0372 14.4572C3.0735 14.5825 2.1965 13.9849 2.1098 12.5297C1.967 11.4158 2.6096 10.3501 3.6614 9.95657C6.2249 9.06027 5.9551 11.9997 5.9647 11.9997Z" fill="#4D7CCE"/>
<path d="M9.31836 3.61535C9.29466 3.89615 9.31416 4.17895 9.37616 4.45385C9.77126 6.50655 11.3037 7.26795 12.6529 6.97875C16.2572 6.20785 16.0452 -0.865951 11.7566 0.386849C10.3478 0.846049 9.37456 2.13475 9.31836 3.61535ZM12.4698 5.91865C11.506 6.04395 10.6291 5.44645 10.5423 3.99125C10.3899 2.87065 11.0343 1.79395 12.0939 1.39875C15.1682 0.280849 15.3128 5.54285 12.4698 5.91865Z" fill="#4D7CCE"/>
<path d="M17.4711 3.74195C17.2885 3.74185 17.139 3.88714 17.1338 4.06964C17.1338 4.25594 17.2848 4.40695 17.4711 4.40695C18.0975 4.50335 18.7143 4.62854 19.3504 4.69604H20.1599H20.9598C21.5959 4.63824 22.2127 4.54185 22.8873 4.47435C23.1803 4.42765 23.3129 4.08115 23.1259 3.85075C23.066 3.77705 22.9811 3.72805 22.8873 3.71305C22.2512 3.64555 21.6344 3.53955 20.9598 3.49135H20.1599C19.8904 3.47215 19.6199 3.47215 19.3504 3.49135C18.7529 3.52025 18.1072 3.64555 17.4711 3.74195Z" fill="#7196D8"/>
</g>
<defs>
<clipPath id="clip0_606_922">
<rect width="24" height="24" fill="white"/>
</clipPath>
</defs>
</svg>
