<svg width="24" height="24" viewBox="0 0 24 24" fill="none" xmlns="http://www.w3.org/2000/svg">
<g clip-path="url(#clip0_1076_5055)">
<path d="M7.18928 20.2023H5.79188C5.35818 20.2023 4.82818 20.2023 4.39448 20.2601C3.26698 20.3469 2.19718 20.4914 1.11778 20.6167C0.931483 20.622 0.784783 20.7773 0.790183 20.9636C0.795383 21.15 0.950784 21.2967 1.13708 21.2913C2.22608 21.3491 3.33438 21.4359 4.39448 21.4744H5.78228C6.20628 21.4744 6.74598 21.407 7.17008 21.407C9.29988 21.407 9.32878 20.4432 8.76018 20.2698C8.23968 20.1998 7.71388 20.1772 7.18928 20.2023Z" fill="black"/>
<path d="M7.44902 12.5698C7.85382 12.6469 11.304 12.6372 13.3182 12.7143C14.8505 12.7818 16.3828 12.8107 17.9151 12.8203C19.4474 12.8299 21.2304 12.8203 22.888 12.6854C23.0971 12.6802 23.2639 12.5091 23.2638 12.2999C23.2535 12.0893 23.0796 11.9238 22.8687 11.9241C20.9412 11.9241 18.9367 11.7217 16.9707 11.606C15.66 11.5193 14.3301 11.4518 13.0098 11.4518C11.1218 11.4808 9.23672 11.6095 7.36232 11.8373C7.03462 11.9048 7.10212 12.5119 7.44902 12.5698Z" fill="black"/>
<path d="M17.8954 20.4626C17.7128 20.4625 17.5633 20.6078 17.5581 20.7903C17.5581 20.9766 17.7091 21.1276 17.8954 21.1276C18.5314 21.224 19.1386 21.3492 19.7746 21.4167H20.5842H21.3937C22.0201 21.3589 22.6369 21.2625 23.3212 21.195C23.6142 21.1483 23.7467 20.8018 23.5597 20.5714C23.4999 20.4977 23.4149 20.4487 23.3212 20.4337C22.6851 20.3662 22.0683 20.2602 21.3937 20.212H20.5842C20.3147 20.1928 20.0441 20.1928 19.7746 20.212C19.1386 20.2409 18.5314 20.3662 17.8954 20.4626Z" fill="black"/>
<path d="M6.71601 3.48163H5.32821C4.90421 3.48163 4.36451 3.48163 3.93081 3.53943C2.84181 3.63583 1.77211 3.78033 0.69271 3.90563C0.43301 3.90423 0.26921 4.18443 0.39781 4.41003C0.45821 4.51583 0.57091 4.58093 0.69271 4.58023C1.78171 4.63813 2.85151 4.73443 3.94051 4.76343H5.33791C5.77161 4.76343 6.30161 4.69593 6.72571 4.69593C8.85551 4.69593 8.88441 3.73223 8.31581 3.56833C7.78701 3.48393 7.25081 3.45493 6.71601 3.48163Z" fill="black"/>
<path d="M9.75115 20.337C9.71935 20.6172 9.73565 20.9008 9.79925 21.1755C10.1944 23.2282 11.7267 23.9896 13.0759 23.7004C16.6803 22.9295 16.4683 15.8557 12.1797 17.1085C10.773 17.5686 9.80315 18.8579 9.75115 20.337ZM12.9025 22.6018C11.9387 22.7271 11.0617 22.1296 10.975 20.6743C10.8235 19.5614 11.4641 18.4923 12.517 18.1012C15.5913 17.0025 15.7358 22.2645 12.9025 22.6018Z" fill="#4D7CCE"/>
<path d="M0.847297 12.6839C1.1075 15.0451 2.7748 15.8739 4.23 15.5751C5.5885 15.267 6.5647 14.0764 6.6008 12.6839C6.755 10.6986 6.3695 8.14477 3.3337 9.03137C1.7618 9.52977 0.734597 11.0387 0.847297 12.6839ZM5.9647 11.9997C6.0801 13.2017 5.2322 14.2829 4.0372 14.4572C3.0735 14.5825 2.1965 13.9849 2.1098 12.5297C1.967 11.4158 2.6096 10.3501 3.6614 9.95657C6.2249 9.06027 5.9551 11.9997 5.9647 11.9997Z" fill="#4D7CCE"/>
<path d="M9.31836 3.61535C9.29466 3.89615 9.31416 4.17895 9.37616 4.45385C9.77126 6.50655 11.3037 7.26795 12.6529 6.97875C16.2572 6.20785 16.0452 -0.865951 11.7566 0.386849C10.3478 0.846049 9.37456 2.13475 9.31836 3.61535ZM12.4698 5.91865C11.506 6.04395 10.6291 5.44645 10.5423 3.99125C10.3899 2.87065 11.0343 1.79395 12.0939 1.39875C15.1682 0.280849 15.3128 5.54285 12.4698 5.91865Z" fill="#4D7CCE"/>
<path d="M17.4721 3.74195C17.2895 3.74185 17.14 3.88714 17.1348 4.06964C17.1348 4.25594 17.2858 4.40695 17.4721 4.40695C18.0985 4.50335 18.7153 4.62854 19.3514 4.69604H20.1609H20.9608C21.5969 4.63824 22.2137 4.54185 22.8883 4.47435C23.1813 4.42765 23.3139 4.08115 23.1269 3.85075C23.067 3.77705 22.9821 3.72805 22.8883 3.71305C22.2522 3.64555 21.6354 3.53955 20.9608 3.49135H20.1609C19.8914 3.47215 19.6209 3.47215 19.3514 3.49135C18.7539 3.52025 18.1082 3.64555 17.4721 3.74195Z" fill="black"/>
</g>
<defs>
<clipPath id="clip0_1076_5055">
<rect width="24" height="24" fill="white"/>
</clipPath>
</defs>
</svg>
