<svg width="40" height="40" viewBox="0 0 40 40" fill="none" xmlns="http://www.w3.org/2000/svg">
<path fill-rule="evenodd" clip-rule="evenodd" d="M15.9926 29.5954C13.116 28.3544 10.4363 26.6996 8.0383 24.6836C7.08379 23.8484 5.75145 23.0928 5.87077 21.3031C6.20882 16.8686 17.4044 7.18427 20.606 9.82906C22.1173 11.0819 18.7766 16.0732 17.4442 17.3856C19.6118 17.6044 32.1795 18.8174 33.7505 19.3742C33.8669 19.43 33.9594 19.5259 34.0109 19.6444C34.0624 19.7628 34.0695 19.8959 34.0308 20.0191C33.9921 20.1424 33.9103 20.2475 33.8004 20.3154C33.6905 20.3832 33.5598 20.4091 33.4323 20.3883C31.5829 19.8117 17.3647 19.0361 16.1318 18.8571C14.8989 18.6782 14.9585 17.326 16.0125 16.4908C17.4473 15.0082 18.5282 13.2202 19.1743 11.2608C18.7155 11.2956 18.2688 11.4242 17.8618 11.6387C14.6205 13.0307 6.30825 20.0503 8.25705 22.1781C11.3152 24.9891 14.8507 27.2316 18.697 28.8C17.6232 26.2347 14.7199 23.9479 14.7199 22.9536C14.7631 22.7203 14.8899 22.5107 15.0767 22.3642C15.2634 22.2178 15.4971 22.1445 15.7341 22.1582C18.2595 22.4167 13.9841 22.715 33.6311 20.6667C33.7732 20.6926 33.9016 20.7674 33.9942 20.8783C34.0867 20.9891 34.1373 21.1289 34.1373 21.2733C34.1373 21.4176 34.0867 21.5574 33.9942 21.6682C33.9016 21.7791 33.7732 21.8539 33.6311 21.8798C33.7703 21.8798 21.2623 24.266 17.3448 23.8683C18.4783 25.2206 20.447 27.1296 20.5066 29.317C20.5066 30.2715 19.8305 30.9079 18.2794 30.4903C17.5005 30.2365 16.7369 29.9377 15.9926 29.5954Z" fill="black"/>
</svg>
