<svg width="40" height="40" viewBox="0 0 40 40" fill="none" xmlns="http://www.w3.org/2000/svg">
<path fill-rule="evenodd" clip-rule="evenodd" d="M24.0074 10.4044C26.884 11.6454 29.5637 13.3001 31.9617 15.3161C32.9162 16.1513 34.2485 16.907 34.1292 18.6967C33.7912 23.1312 22.5956 32.8155 19.394 30.1707C17.8827 28.9179 21.2234 23.9266 22.5558 22.6141C20.3882 22.3954 7.82051 21.1824 6.24954 20.6256C6.13305 20.5698 6.04059 20.4739 5.9891 20.3554C5.9376 20.2369 5.93054 20.1039 5.96921 19.9806C6.00787 19.8574 6.08967 19.7522 6.1996 19.6844C6.30953 19.6166 6.44023 19.5907 6.56771 19.6114C8.41708 20.1881 22.6353 20.9636 23.8682 21.1426C25.1011 21.3216 25.0415 22.6738 23.9875 23.509C22.5527 24.9916 21.4718 26.7795 20.8257 28.7389C21.2845 28.7041 21.7312 28.5755 22.1382 28.3611C25.3795 26.9691 33.6917 19.9495 31.743 17.8217C28.6848 15.0107 25.1493 12.7682 21.303 11.1998C22.3768 13.765 25.2801 16.0519 25.2801 17.0462C25.2369 17.2795 25.1101 17.4891 24.9233 17.6355C24.7366 17.782 24.5029 17.8552 24.2659 17.8416C21.7405 17.5831 26.0159 17.2848 6.36886 19.333C6.22682 19.3072 6.09835 19.2323 6.00585 19.1215C5.91335 19.0107 5.86267 18.8709 5.86267 18.7265C5.86267 18.5821 5.91335 18.4423 6.00585 18.3315C6.09835 18.2207 6.22682 18.1458 6.36886 18.12C6.22966 18.12 18.7377 15.7337 22.6552 16.1314C21.5217 14.7792 19.553 12.8702 19.4934 10.6828C19.4934 9.72824 20.1695 9.0919 21.7206 9.5095C22.4995 9.76326 23.2631 10.062 24.0074 10.4044Z" fill="black"/>
</svg>
