<svg width="113" height="146" viewBox="0 0 113 146" fill="none" xmlns="http://www.w3.org/2000/svg">
<path d="M34.5617 75.8486V102.825C34.5617 104.33 33.3178 105.566 31.8049 105.566C31.3005 105.566 30.83 105.433 30.3928 105.165L23.3325 100.953C21.2482 99.7164 19.9705 97.4768 19.9705 95.07V83.6041C19.9705 81.1973 18.6929 78.9575 16.6084 77.7207L3.36205 69.7648C1.27757 68.5279 0 66.2883 0 63.8813V2.7411C0 1.23684 1.21033 0 2.75688 0C3.26117 0 3.79911 0.133708 4.23618 0.401124L9.0775 3.40967C11.0947 4.67994 12.3387 6.88621 12.3387 9.25961V54.7555C12.3387 57.1623 13.6163 59.4019 15.7007 60.6388L31.267 69.9318C33.2842 71.2022 34.5617 73.4418 34.5617 75.8486Z" stroke="#666666" stroke-width="2" stroke-miterlimit="10"/>
<path d="M49.6911 27.5115L22.6604 11.3656C21.3491 10.5968 19.6681 10.9979 18.8948 12.3016C18.6258 12.7361 18.4915 13.2042 18.4915 13.7057V46.1644C18.4915 48.5712 19.769 50.811 21.8535 52.0477L37.3861 61.3409C39.4705 62.5777 40.748 64.8174 40.748 67.2242V135.919C40.748 138.326 42.0257 140.566 44.1101 141.803L48.8842 144.644C50.1955 145.413 51.8765 145.012 52.6496 143.708C52.9187 143.273 53.0531 142.805 53.0531 142.304V33.3614C53.0531 31.0215 51.7756 28.7817 49.6911 27.5115Z" stroke="#666666" stroke-width="2" stroke-miterlimit="10"/>
<path d="M77.6958 75.8486V102.825C77.6958 104.33 78.9398 105.566 80.4528 105.566C80.957 105.566 81.4277 105.433 81.8649 105.165L88.9251 100.953C91.0095 99.7164 92.2872 97.4768 92.2872 95.07V83.6375C92.2872 81.2305 93.5647 78.9909 95.6491 77.7542L108.896 69.8315C110.98 68.5948 112.258 66.355 112.258 63.9482V2.7411C112.258 1.23684 111.047 0 109.501 0C108.963 0 108.459 0.133708 108.021 0.401124L103.18 3.40967C101.163 4.67994 99.919 6.88621 99.919 9.25961V54.7555C99.919 57.1623 98.6413 59.4019 96.557 60.6388L81.0243 69.9318C79.007 71.2022 77.6958 73.4418 77.6958 75.8486Z" stroke="#666666" stroke-width="2" stroke-miterlimit="10"/>
<path d="M62.5682 27.5115L89.599 11.3656C90.9102 10.5634 92.5912 10.9979 93.398 12.2683C93.667 12.7028 93.8015 13.2042 93.8015 13.7057V46.1644C93.8015 48.5713 92.524 50.811 90.4395 52.0477L74.9069 61.3409C72.8223 62.5776 71.5448 64.8174 71.5448 67.2242V135.919C71.5448 138.326 70.2673 140.566 68.1827 141.803L63.4087 144.644C62.0975 145.413 60.4165 145.012 59.6432 143.708C59.3742 143.273 59.2397 142.805 59.2397 142.304L59.2062 33.4283C59.2062 31.0215 60.4837 28.7817 62.5682 27.5115Z" stroke="#666666" stroke-width="2" stroke-miterlimit="10"/>
</svg>
