<svg width="53" height="146" viewBox="0 0 53 146" fill="none" xmlns="http://www.w3.org/2000/svg">
<mask id="mask0_3010_5601" style="mask-type:luminance" maskUnits="userSpaceOnUse" x="0" y="0" width="113" height="146">
<path d="M111.759 0.5V144.612H0.5V0.5H111.759Z" fill="white" stroke="white"/>
</mask>
<g mask="url(#mask0_3010_5601)">
<path d="M34.5617 75.8486V102.825C34.5617 104.33 33.3178 105.566 31.8049 105.566C31.3005 105.566 30.83 105.433 30.3928 105.165L23.3325 100.953C21.2482 99.7164 19.9705 97.4768 19.9705 95.07V83.6041C19.9705 81.1973 18.6929 78.9575 16.6084 77.7207L3.36205 69.7648C1.27757 68.5279 0 66.2883 0 63.8813V2.7411C0 1.23684 1.21033 0 2.75688 0C3.26117 0 3.79911 0.133708 4.23618 0.401124L9.0775 3.40967C11.0947 4.67994 12.3387 6.88621 12.3387 9.25961V54.7555C12.3387 57.1623 13.6163 59.4019 15.7007 60.6388L31.267 69.9318C33.2842 71.2022 34.5617 73.4418 34.5617 75.8486Z" stroke="#666666" stroke-width="2" stroke-miterlimit="10"/>
<path d="M49.6911 27.5116L22.6604 11.3656C21.3491 10.5969 19.6681 10.998 18.8948 12.3016C18.6258 12.7362 18.4915 13.2043 18.4915 13.7057V46.1644C18.4915 48.5713 19.769 50.811 21.8535 52.0478L37.3861 61.341C39.4705 62.5777 40.748 64.8175 40.748 67.2243V135.919C40.748 138.326 42.0257 140.566 44.1101 141.803L48.8842 144.644C50.1955 145.413 51.8765 145.012 52.6496 143.708C52.9187 143.274 53.0531 142.806 53.0531 142.304V33.3615C53.0531 31.0215 51.7756 28.7818 49.6911 27.5116Z" stroke="#666666" stroke-width="2" stroke-miterlimit="10"/>
</g>
</svg>
