<svg width="47" height="39" viewBox="0 0 47 39" fill="none" xmlns="http://www.w3.org/2000/svg">
<g filter="url(#filter0_d_1421_4100)">
<mask id="path-1-inside-1_1421_4100" fill="white">
<path d="M42.9805 30.7698H7.36924L4 0L42.9805 30.7698Z"/>
</mask>
<path d="M42.9805 30.7698H7.36924L4 0L42.9805 30.7698Z" fill="#7196D8"/>
<path d="M44.2197 29.1999C43.3935 30.2465 42.5674 31.2931 41.7413 32.3396C40.2962 31.0439 38.8439 29.7573 37.3845 28.4797C31.189 23.0565 24.864 17.7974 18.4094 12.7024C13.391 8.74106 7.76027 5.55531 2.47392 1.9333L6.44841 -0.268097C6.49995 0.0207604 6.55034 0.309745 6.59942 0.598871C7.14639 3.82096 7.72017 7.04011 8.07528 10.2832C8.81138 17.0057 9.29292 23.7561 9.8147 30.502L7.36924 28.3097C11.0359 28.4266 14.7026 28.5316 18.3692 28.5774C24.6359 28.6557 30.9025 28.6892 37.1692 28.7293C39.1063 28.7416 41.0434 28.7546 42.9805 28.7698C42.9805 30.1031 42.9805 31.4364 42.9805 32.7698C41.0434 32.7849 39.1063 32.7979 37.1692 32.8103C30.9025 32.8503 24.6359 32.8838 18.3692 32.9621C14.7026 33.008 11.0359 33.1129 7.36924 33.2298L5.08773 33.1571L4.92379 31.0375C3.97337 24.3385 2.9827 17.6439 2.2466 10.9214C1.89148 7.67834 1.75503 4.41131 1.59177 1.1472C1.57712 0.854304 1.56378 0.561264 1.55159 0.268097L1.16403 -5.70123L5.52608 -1.9333C10.2766 2.36746 14.6828 7.10448 19.7013 11.0659C26.1558 16.1609 32.7399 21.0918 39.4536 25.8585C41.0351 26.9814 42.6238 28.0952 44.2197 29.1999ZM41.7413 32.3396L44.2197 29.1999L48.2245 32.7909L42.9805 32.7698V28.7698L41.7413 32.3396Z" fill="black" mask="url(#path-1-inside-1_1421_4100)"/>
</g>
<defs>
<filter id="filter0_d_1421_4100" x="0" y="0" width="46.9805" height="38.7698" filterUnits="userSpaceOnUse" color-interpolation-filters="sRGB">
<feFlood flood-opacity="0" result="BackgroundImageFix"/>
<feColorMatrix in="SourceAlpha" type="matrix" values="0 0 0 0 0 0 0 0 0 0 0 0 0 0 0 0 0 0 127 0" result="hardAlpha"/>
<feOffset dy="4"/>
<feGaussianBlur stdDeviation="2"/>
<feComposite in2="hardAlpha" operator="out"/>
<feColorMatrix type="matrix" values="0 0 0 0 0 0 0 0 0 0 0 0 0 0 0 0 0 0 0.25 0"/>
<feBlend mode="normal" in2="BackgroundImageFix" result="effect1_dropShadow_1421_4100"/>
<feBlend mode="normal" in="SourceGraphic" in2="effect1_dropShadow_1421_4100" result="shape"/>
</filter>
</defs>
</svg>
