<svg width="46" height="34" viewBox="0 0 46 34" fill="none" xmlns="http://www.w3.org/2000/svg">
<path d="M4.33597 0.5L41.836 0L41.336 30L4.33597 0.5Z" fill="white" stroke="white"/>
<path d="M41.8165 30.7698H6.20521L2.83597 0L41.8165 30.7698Z" fill="#7196D8"/>
<mask id="mask0_2_3" style="mask-type:luminance" maskUnits="userSpaceOnUse" x="2" y="0" width="40" height="31">
<path d="M41.8165 30.7698H6.20521L2.83597 0L41.8165 30.7698Z" fill="white"/>
</mask>
<g mask="url(#mask0_2_3)">
<path d="M43.0557 29.1999C42.2295 30.2465 41.4034 31.2931 40.5773 32.3396C39.1322 31.0439 37.6799 29.7573 36.2205 28.4797C30.025 23.0565 23.7 17.7974 17.2454 12.7024C12.227 8.74106 6.59624 5.55531 1.30989 1.9333L5.28438 -0.2681C5.33592 0.0207577 5.38631 0.309742 5.43539 0.598868C5.98236 3.82096 6.55614 7.04011 6.91125 10.2832C7.64735 17.0057 8.12889 23.7561 8.65067 30.502L6.20521 28.3097C9.87187 28.4266 13.5386 28.5316 17.2052 28.5774C23.4719 28.6557 29.7385 28.6892 36.0052 28.7293C37.9423 28.7416 39.8794 28.7546 41.8165 28.7698C41.8165 30.1031 41.8165 31.4364 41.8165 32.7698C39.8794 32.7849 37.9423 32.7979 36.0052 32.8103C29.7385 32.8503 23.4719 32.8838 17.2052 32.9621C13.5386 33.008 9.87187 33.1129 6.20521 33.2298L3.9237 33.1571L3.75976 31.0375C2.80934 24.3385 1.81867 17.6439 1.08257 10.9214C0.72745 7.67834 0.591 4.41131 0.42774 1.1472C0.41309 0.854301 0.39975 0.561261 0.38756 0.268094L0 -5.70123L4.36205 -1.9333C9.11257 2.36746 13.5188 7.10448 18.5373 11.0659C24.9918 16.1609 31.5759 21.0918 38.2896 25.8585C39.8711 26.9814 41.4598 28.0952 43.0557 29.1999ZM40.5773 32.3396L43.0557 29.1999L47.0605 32.7909L41.8165 32.7698V28.7698L40.5773 32.3396Z" fill="black"/>
</g>
</svg>
