<svg width="1100" height="448" viewBox="0 0 1100 448" fill="none" xmlns="http://www.w3.org/2000/svg">
<mask id="path-1-inside-1_1332_1407" fill="white">
<path d="M1100 56.9376L988.693 0C602.585 0 386.109 0 0 0V448C429.577 448 670.423 448 1100 448V56.9376Z"/>
</mask>
<path d="M1100 56.9376L988.693 0C602.585 0 386.109 0 0 0V448C429.577 448 670.423 448 1100 448V56.9376Z" fill="#7196D8"/>
<path d="M0 450C0 448.667 0 447.333 0 446C50.7089 443.439 101.371 442.159 152.016 442.159C152.225 442.159 152.434 442.159 152.643 442.159C287.567 442.159 422.268 442.163 557.12 442.203C738.076 442.255 918.788 443.342 1100 443.961L1095.96 448C1096.21 375.084 1096.38 302.168 1096.38 229.252C1096.38 171.814 1096.28 114.376 1096.12 56.9376L1098.24 60.3877C1061.08 41.511 1023.91 22.661 986.738 3.82301L988.693 4.29416C823.324 4.92243 658.406 5.76 493.258 5.76C328.84 5.76 164.643 5.52256 0 5.25336L5.25342 0C5.1283 76.3555 4.99646 152.711 4.8783 229.066C4.84412 251.165 4.65479 273.263 4.38062 295.361C3.74939 346.241 2.66895 397.12 2 448C0.666626 448 -0.666626 448 -2 448C-2.66895 397.12 -3.74939 346.241 -4.38062 295.361C-4.65479 273.263 -4.84412 251.165 -4.8783 229.066C-4.99646 152.711 -5.1283 76.3555 -5.25342 0L-5.24475 -5.26195L0 -5.25336C164.643 -5.52256 328.84 -5.76 493.258 -5.76C658.406 -5.76 823.324 -4.92243 988.693 -4.29416L990.649 -3.82301C1027.68 15.2973 1064.72 34.4058 1101.76 53.4874L1103.88 54.5777L1103.88 56.9376C1103.72 114.376 1103.62 171.814 1103.62 229.252C1103.62 302.168 1103.79 375.084 1104.04 448L1104.03 452.053L1100 452.039C918.788 452.658 738.076 453.745 557.12 453.797C422.268 453.837 287.567 453.841 152.643 453.841C152.434 453.841 152.225 453.841 152.016 453.841C101.371 453.841 50.7089 452.561 0 450ZM0 446V450L-2.0249 449.898L-2 448H2L0 446Z" fill="black" mask="url(#path-1-inside-1_1332_1407)"/>
</svg>
