<svg width="76" height="59" viewBox="0 0 76 59" fill="none" xmlns="http://www.w3.org/2000/svg">
<g clip-path="url(#clip0_7_29)">
<g filter="url(#filter0_d_7_29)">
<path d="M62.9805 48.7698H27.3692L24 18L62.9805 48.7698Z" fill="#7196D8"/>
<mask id="mask0_7_29" style="mask-type:luminance" maskUnits="userSpaceOnUse" x="24" y="18" width="39" height="31">
<path d="M62.9805 48.7698H27.3692L24 18L62.9805 48.7698Z" fill="white"/>
</mask>
<g mask="url(#mask0_7_29)">
<path d="M64.2197 47.1999C63.3935 48.2465 62.5674 49.2931 61.7413 50.3396C60.2962 49.0439 58.8439 47.7573 57.3845 46.4797C51.189 41.0565 44.864 35.7974 38.4094 30.7024C33.391 26.7411 27.7603 23.5553 22.4739 19.9333L26.4484 17.7319C26.5 18.0208 26.5503 18.3097 26.5994 18.5989C27.1464 21.821 27.7202 25.0401 28.0753 28.2832C28.8114 35.0057 29.2929 41.7561 29.8147 48.502L27.3692 46.3097C31.0359 46.4266 34.7026 46.5316 38.3692 46.5774C44.6359 46.6557 50.9025 46.6892 57.1692 46.7293C59.1063 46.7416 61.0434 46.7546 62.9805 46.7698C62.9805 48.1031 62.9805 49.4364 62.9805 50.7698C61.0434 50.7849 59.1063 50.7979 57.1692 50.8103C50.9025 50.8503 44.6359 50.8838 38.3692 50.9621C34.7026 51.008 31.0359 51.1129 27.3692 51.2298L25.0877 51.1571L24.9238 49.0375C23.9734 42.3385 22.9827 35.6439 22.2466 28.9214C21.8915 25.6783 21.755 22.4113 21.5918 19.1472C21.5771 18.8543 21.5638 18.5613 21.5516 18.2681L21.164 12.2988L25.5261 16.0667C30.2766 20.3675 34.6828 25.1045 39.7013 29.0659C46.1558 34.1609 52.7399 39.0918 59.4536 43.8585C61.0351 44.9814 62.6238 46.0952 64.2197 47.1999ZM61.7413 50.3396L64.2197 47.1999L68.2245 50.7909L62.9805 50.7698V46.7698L61.7413 50.3396Z" fill="black"/>
</g>
</g>
</g>
<path d="M76 59L14 10L0 0H76V10V59Z" fill="white"/>
<defs>
<filter id="filter0_d_7_29" x="20" y="18" width="46.9805" height="38.7698" filterUnits="userSpaceOnUse" color-interpolation-filters="sRGB">
<feFlood flood-opacity="0" result="BackgroundImageFix"/>
<feColorMatrix in="SourceAlpha" type="matrix" values="0 0 0 0 0 0 0 0 0 0 0 0 0 0 0 0 0 0 127 0" result="hardAlpha"/>
<feOffset dy="4"/>
<feGaussianBlur stdDeviation="2"/>
<feComposite in2="hardAlpha" operator="out"/>
<feColorMatrix type="matrix" values="0 0 0 0 0 0 0 0 0 0 0 0 0 0 0 0 0 0 0.25 0"/>
<feBlend mode="normal" in2="BackgroundImageFix" result="effect1_dropShadow_7_29"/>
<feBlend mode="normal" in="SourceGraphic" in2="effect1_dropShadow_7_29" result="shape"/>
</filter>
<clipPath id="clip0_7_29">
<rect width="47" height="39" fill="white" transform="translate(20 18)"/>
</clipPath>
</defs>
</svg>
