<svg width="123" height="69" viewBox="0 0 123 69" fill="none" xmlns="http://www.w3.org/2000/svg">
<g filter="url(#filter0_d_1332_1408)">
<mask id="path-1-inside-1_1332_1408" fill="white">
<path d="M118.676 60.5038H13.9119L4 0L118.676 60.5038Z"/>
</mask>
<path d="M118.676 60.5038H13.9119L4 0L118.676 60.5038Z" fill="#7196D8"/>
<path d="M119.609 58.7349C118.987 59.9142 118.364 61.0934 117.742 62.2727C113.372 59.9943 109.002 57.7141 104.632 55.4331C86.0841 45.7502 67.5432 36.0533 48.9679 26.4216C33.8642 18.5901 18.3625 11.513 3.31545 3.57406C3.00226 3.40881 2.68953 3.24268 2.37721 3.07574L7.43184 -0.562212C8.67429 7.28728 9.46277 15.2111 10.7476 23.0537C12.7667 35.3791 15.1664 47.6421 17.5884 59.9015L13.9119 56.7783C27.9591 56.3192 42.0063 55.8315 56.0535 55.8315C71.9986 55.8315 87.9438 56.3512 103.889 57.3908C108.818 57.7121 113.747 58.0831 118.676 58.5038C118.676 59.8371 118.676 61.1705 118.676 62.5038C113.747 62.9245 108.818 63.2955 103.889 63.6168C87.9438 64.6564 71.9986 65.1762 56.0535 65.1762C42.0063 65.1762 27.9591 64.6884 13.9119 64.2293L10.6288 64.122L10.2354 61.1061C8.61901 48.7147 6.98033 36.327 4.96116 24.0016C3.67638 16.1591 1.89529 8.39783 0.568161 0.562212L-0.535652 -6.35822L5.62279 -3.07574C5.93689 -2.91218 6.25054 -2.74782 6.56374 -2.58257C21.6108 5.35638 36.2031 14.1572 51.1935 22.2035C69.6294 32.0993 88.0998 41.9299 106.563 51.7744C110.912 54.0935 115.261 56.4133 119.609 58.7349ZM117.742 62.2727L119.609 58.7349L118.676 62.5038V58.5038L117.742 62.2727Z" fill="black" mask="url(#path-1-inside-1_1332_1408)"/>
</g>
<defs>
<filter id="filter0_d_1332_1408" x="0" y="0" width="122.676" height="68.5038" filterUnits="userSpaceOnUse" color-interpolation-filters="sRGB">
<feFlood flood-opacity="0" result="BackgroundImageFix"/>
<feColorMatrix in="SourceAlpha" type="matrix" values="0 0 0 0 0 0 0 0 0 0 0 0 0 0 0 0 0 0 127 0" result="hardAlpha"/>
<feOffset dy="4"/>
<feGaussianBlur stdDeviation="2"/>
<feComposite in2="hardAlpha" operator="out"/>
<feColorMatrix type="matrix" values="0 0 0 0 0 0 0 0 0 0 0 0 0 0 0 0 0 0 0.25 0"/>
<feBlend mode="normal" in2="BackgroundImageFix" result="effect1_dropShadow_1332_1408"/>
<feBlend mode="normal" in="SourceGraphic" in2="effect1_dropShadow_1332_1408" result="shape"/>
</filter>
</defs>
</svg>
