<svg width="117" height="66" viewBox="0 0 117 66" fill="none" xmlns="http://www.w3.org/2000/svg">
<path d="M115.676 61.0038H10.9119L1 0.499996L115.676 61.0038Z" fill="#7196D8"/>
<path d="M1.5 0.499996L116 0.999996L115 60L58.5 31L1.5 0.499996Z" fill="white" stroke="white"/>
<mask id="mask0_1_3" style="mask-type:luminance" maskUnits="userSpaceOnUse" x="1" y="0" width="115" height="62">
<path d="M115.676 61.0038H10.9119L1 0.499996L115.676 61.0038Z" fill="white"/>
</mask>
<g mask="url(#mask0_1_3)">
<path d="M116.609 59.2349C115.987 60.4142 115.364 61.5934 114.742 62.7727C110.372 60.4943 106.002 58.2141 101.632 55.9331C83.0841 46.2502 64.5432 36.5533 45.9679 26.9216C30.8642 19.0901 15.3625 12.013 0.315457 4.07406C0.00226736 3.90881 -0.310463 3.74268 -0.622783 3.57574L4.43185 -0.0622149C5.6743 7.78728 6.46278 15.7111 7.74761 23.5537C9.76671 35.8791 12.1664 48.1421 14.5884 60.4015L10.9119 57.2783C24.9591 56.8192 39.0063 56.3315 53.0535 56.3315C68.9986 56.3315 84.9438 56.8512 100.889 57.8908C105.818 58.2121 110.747 58.5831 115.676 59.0038C115.676 60.3371 115.676 61.6705 115.676 63.0038C110.747 63.4245 105.818 63.7955 100.889 64.1168C84.9438 65.1564 68.9986 65.6762 53.0535 65.6762C39.0063 65.6762 24.9591 65.1884 10.9119 64.7293L7.62881 64.622L7.23541 61.6061C5.61902 49.2147 3.98034 36.827 1.96117 24.5016C0.676388 16.6591 -1.1047 8.89783 -2.43183 1.06221L-3.53564 -5.85822L2.6228 -2.57574C2.9369 -2.41218 3.25055 -2.24782 3.56375 -2.08257C18.6108 5.85638 33.2031 14.6572 48.1935 22.7035C66.6294 32.5993 85.0998 42.4299 103.563 52.2744C107.912 54.5935 112.261 56.9133 116.609 59.2349ZM114.742 62.7727L116.609 59.2349L115.676 63.0038V59.0038L114.742 62.7727Z" fill="black"/>
</g>
</svg>
