<svg width="13" height="17" viewBox="0 0 13 17" fill="none" xmlns="http://www.w3.org/2000/svg">
<path fill-rule="evenodd" clip-rule="evenodd" d="M11.9806 7.88404C11.016 7.78876 8.69364 9.26553 7.94334 10.0277C7.72897 7.82449 7.06205 1.15521 6.7524 0.273917C6.745 0.228423 6.72791 0.185052 6.70227 0.146743C6.67664 0.108434 6.64308 0.0760828 6.60385 0.0518826C6.56462 0.0276823 6.52065 0.0121983 6.47491 0.00648014C6.42918 0.000761953 6.38275 0.00494352 6.33877 0.0187408C6.29479 0.0325381 6.25429 0.0556288 6.22001 0.0864481C6.18574 0.117267 6.15849 0.155095 6.14012 0.197366C6.12175 0.239638 6.11267 0.285365 6.11352 0.33145C6.11437 0.377534 6.12511 0.422899 6.14502 0.464468C6.47848 1.58395 6.89531 9.73 7.05014 10.8257C7.15732 11.6117 7.96716 11.5283 8.46736 10.8852C9.3605 10.0438 10.4307 9.413 11.5995 9.03925C11.5995 8.94398 11.5995 10.2302 9.34866 12.8026C8.515 13.7673 6.00211 16.435 5.04935 15.5656C3.36625 13.7338 2.02329 11.6165 1.08352 9.31317C2.71511 10.0039 3.95369 11.6951 4.58489 11.6951C4.72681 11.669 4.85403 11.5913 4.94201 11.4769C5.02999 11.3625 5.07247 11.2196 5.06126 11.0758C4.90644 9.56327 4.73971 12.1238 5.95447 0.357283C5.95447 0.310364 5.94523 0.263904 5.92727 0.220557C5.90932 0.177209 5.883 0.137823 5.84982 0.104646C5.81665 0.0714692 5.77726 0.0451517 5.73391 0.0271966C5.69057 0.00924147 5.64411 0 5.59719 0C5.55027 0 5.50381 0.00924147 5.46046 0.0271966C5.41711 0.0451517 5.37773 0.0714692 5.34455 0.104646C5.31137 0.137823 5.28506 0.177209 5.2671 0.220557C5.24915 0.263904 5.23991 0.310364 5.23991 0.357283C5.23991 0.262008 3.81077 7.76494 4.04896 10.1111C3.13194 9.33699 2.072 8.24132 0.773871 8.20559C0.634038 8.1943 0.493972 8.22441 0.371138 8.29218C0.248305 8.35995 0.148137 8.46238 0.0831245 8.5867C-0.23843 9.30126 0.464226 10.4684 0.642867 10.9686C1.39232 12.6725 2.3874 14.2574 3.59641 15.6728C4.13233 16.2802 4.53725 17.0424 5.6091 16.959C8.25299 16.7685 14.0648 10.0516 12.4808 8.14605C12.4211 8.06904 12.3456 8.00578 12.2593 7.96057C12.173 7.91536 12.0779 7.88926 11.9806 7.88404Z" fill="black"/>
</svg>
