<svg width="7" height="12" viewBox="0 0 7 12" fill="none" xmlns="http://www.w3.org/2000/svg">
<path fill-rule="evenodd" clip-rule="evenodd" d="M0.815671 11.4305L1.35539 10.9399C2.16497 10.1794 3.71053 8.74419 4.76544 7.55435C5.3326 6.9679 5.79334 6.28717 6.127 5.54267C6.16174 5.32226 6.11835 5.09663 6.00434 4.90482C5.80849 4.53932 5.58285 4.1906 5.32969 3.86218C4.23933 2.48432 3.00579 1.2261 1.64978 0.108678C1.59864 0.0674431 1.53973 0.0368999 1.47656 0.0188599C1.41338 0.000819853 1.34723 -0.00434946 1.28202 0.0036586C1.21681 0.0116667 1.15388 0.0326891 1.09695 0.0654787C1.04002 0.0982683 0.99025 0.142157 0.9506 0.194543C0.909678 0.244678 0.879354 0.302596 0.861463 0.36479C0.843572 0.426984 0.838487 0.492161 0.846514 0.556378C0.854541 0.620594 0.875514 0.682515 0.908164 0.738391C0.940813 0.794268 0.984461 0.842938 1.03646 0.881458C2.27179 2.24862 3.37266 3.73151 4.32385 5.30961C4.28358 5.39389 4.23853 5.4758 4.18892 5.55494C3.90679 5.94746 3.48974 6.45038 3.06041 7.01464C2.1895 8.16767 1.20819 9.46791 0.607142 10.2407C0.410881 10.4737 0.128755 10.6455 0.190087 10.7191C0.10284 10.7778 0.0379977 10.8642 0.00609124 10.9644C-0.0429742 11.2465 0.202353 11.8844 0.815671 11.4305Z" fill="black"/>
</svg>
