<svg width="24" height="24" viewBox="0 0 24 24" fill="none" xmlns="http://www.w3.org/2000/svg">
<g clip-path="url(#clip0_1532_481)">
<path d="M16.7401 3.62993C18.2196 4.82834 19.5344 6.21703 20.6501 7.75993C20.9101 8.13993 21.5301 8.96993 22.1701 9.75993C22.6601 10.3499 23.1701 10.9199 23.4901 11.2599C23.5901 11.3599 23.7501 11.4199 23.7301 11.4699C23.8198 11.4909 23.8986 11.5445 23.9509 11.6205C24.0031 11.6964 24.0252 11.7892 24.0127 11.8805C24.0002 11.9718 23.954 12.0552 23.8832 12.1143C23.8124 12.1734 23.7222 12.2039 23.6301 12.1999C23.2391 12.0237 22.8962 11.7562 22.6301 11.4199C21.6967 10.4012 20.8187 9.33297 20.0001 8.21993C18.9029 6.77046 17.6222 5.46959 16.1901 4.34993C15.0001 3.41993 13.8801 2.69993 13.2601 2.75993C13.1901 2.75993 13.1601 2.84993 13.1101 2.92993C13.0298 3.10165 12.9727 3.28323 12.9401 3.46993C12.812 4.54523 12.7919 5.63064 12.8801 6.70993C12.9064 6.91241 12.9064 7.11746 12.8801 7.31993C12.8656 7.42933 12.8174 7.53149 12.7421 7.61216C12.6668 7.69282 12.5682 7.74798 12.4601 7.76993C12.192 7.83657 11.9162 7.86684 11.6401 7.85993C11.1001 7.85993 10.5201 7.75993 10.0401 7.75993H4.29005C3.66074 7.7184 3.02937 7.7184 2.40005 7.75993C2.27484 7.75887 2.1509 7.78517 2.0369 7.83699C1.9229 7.88881 1.82159 7.96489 1.74005 8.05993C1.58584 8.37382 1.48769 8.71225 1.45005 9.05993C1.45417 9.08309 1.45417 9.10678 1.45005 9.12993C1.30005 10.5599 0.180054 10.2799 0.180054 9.10993C0.180054 8.89993 0.240054 8.68993 0.280054 8.49993C0.351787 8.11055 0.486914 7.73557 0.680054 7.38993C0.948068 6.9763 1.36855 6.68519 1.85005 6.57993C2.66068 6.48601 3.47943 6.48601 4.29005 6.57993L10.0001 6.62993C10.4801 6.62993 11.0701 6.73993 11.6101 6.75993H11.7801C11.7301 5.65184 11.7702 4.54153 11.9001 3.43993C12.0801 2.43993 12.5301 1.81993 13.1701 1.76993C13.8101 1.71993 15.3201 2.46993 16.7401 3.62993Z" fill="black"/>
<path d="M9.00003 18.3499L8.29003 18.5899C7.48003 19.0699 7.29003 17.6599 8.03003 17.4399C10 16.7899 12.46 15.9999 12.53 15.9999C12.6427 15.9954 12.7538 16.0269 12.8473 16.0898C12.9408 16.1527 13.0118 16.2439 13.05 16.3499C13.1065 16.5314 13.1368 16.7199 13.14 16.9099C13.14 17.7899 13.07 19.8499 13.2 20.6999L13.37 21.3099C13.6 21.3799 13.89 21.2199 14.18 21.0599C14.5312 20.8683 14.8658 20.6475 15.18 20.3999C16.1 19.6299 17.05 18.8599 17.96 18.0599C18.57 17.5299 19.16 16.9899 19.71 16.4199L21.45 14.5799L23.12 12.8199C23.1836 12.7749 23.261 12.7539 23.3386 12.7605C23.4162 12.7671 23.4889 12.8009 23.544 12.8559C23.5991 12.911 23.6329 12.9838 23.6395 13.0613C23.6461 13.1389 23.625 13.2163 23.58 13.2799L21.91 14.9999L20.21 16.8799C19.65 17.4799 19.06 18.0399 18.45 18.5999C17.55 19.4199 16.61 20.2199 15.71 21.0099C15.2398 21.4381 14.707 21.7922 14.13 22.0599C13.7997 22.2053 13.4303 22.237 13.08 22.1499C12.8703 22.0769 12.6909 21.9362 12.57 21.7499C12.3858 21.4458 12.273 21.1039 12.24 20.7499C12.09 19.9599 12.12 18.1199 12.08 17.1199C11.44 17.4399 10.18 17.9199 9.00003 18.3499Z" fill="black"/>
<path d="M1.3 10.64C1.56475 10.9703 1.90875 11.2283 2.3 11.39C3.46242 11.7416 4.67741 11.8872 5.89 11.82C6.23081 11.8262 6.56842 11.8869 6.89 12C7.07436 12.0699 7.2295 12.2004 7.33 12.37C7.58111 12.8219 7.70549 13.3332 7.69 13.85C7.66004 14.3819 7.56945 14.9086 7.42 15.42C7.15327 16.5972 6.98602 17.7947 6.92 19C6.77 19.24 6.54 19.11 6.38 19.15C5.91202 19.1503 5.44671 19.0795 5 18.94C4.5912 18.8188 4.20579 18.6294 3.86 18.38C3.08741 17.8093 2.37386 17.1627 1.73 16.45C1.29356 15.9462 0.923852 15.3883 0.63 14.79C0.347368 14.1547 0.161959 13.4805 0.0799999 12.79C0.00962895 12.1252 0.00962895 11.4548 0.0799999 10.79C0.093967 10.6757 0.14695 10.5697 0.23 10.49C0.31 10.36 1.31 10.46 1.3 10.64ZM1.3 12.64C1.36673 13.1954 1.51499 13.7379 1.74 14.25C1.98895 14.7459 2.29793 15.2094 2.66 15.63C3.24613 16.2831 3.89602 16.876 4.6 17.4C4.77621 17.5326 4.97185 17.6371 5.18 17.71C5.50472 17.8246 5.83954 17.9083 6.18 17.96C6.01 16.52 6.53 15.08 6.47 13.86C6.41 12.64 6.33 13.1 5.57 13.03C4.5726 12.983 3.58496 12.8116 2.63 12.52C2.13932 12.3561 1.68206 12.1055 1.28 11.78C1.2747 12.0705 1.28806 12.3611 1.32 12.65L1.3 12.64Z" fill="black"/>
</g>
<defs>
<clipPath id="clip0_1532_481">
<rect width="24" height="24" fill="white"/>
</clipPath>
</defs>
</svg>
