<svg width="24" height="24" viewBox="0 0 24 24" fill="none" xmlns="http://www.w3.org/2000/svg">
<g clip-path="url(#clip0_388_974)">
<path d="M16.7397 3.63006C18.2193 4.82846 19.534 6.21715 20.6497 7.76006C20.9097 8.14006 21.5297 8.97006 22.1697 9.76006C22.6597 10.3501 23.1697 10.9201 23.4897 11.2601C23.5897 11.3601 23.7497 11.4201 23.7297 11.4701C23.8195 11.491 23.8982 11.5447 23.9505 11.6206C24.0028 11.6966 24.0248 11.7893 24.0123 11.8806C23.9998 11.972 23.9536 12.0553 23.8829 12.1144C23.8121 12.1735 23.7218 12.2041 23.6297 12.2001C23.2387 12.0238 22.8958 11.7563 22.6297 11.4201C21.6963 10.4013 20.8184 9.3331 19.9997 8.22006C18.9025 6.77059 17.6218 5.46971 16.1897 4.35006C14.9997 3.42006 13.8797 2.70006 13.2597 2.76006C13.1897 2.76006 13.1597 2.85006 13.1097 2.93006C13.0295 3.10178 12.9723 3.28335 12.9397 3.47006C12.8116 4.54535 12.7915 5.63076 12.8797 6.71006C12.9061 6.91253 12.9061 7.11758 12.8797 7.32006C12.8652 7.42945 12.817 7.53161 12.7417 7.61228C12.6664 7.69295 12.5678 7.7481 12.4597 7.77006C12.1916 7.83669 11.9158 7.86696 11.6397 7.86006C11.0997 7.86006 10.5197 7.76006 10.0397 7.76006H4.28969C3.66037 7.71852 3.029 7.71852 2.39969 7.76006C2.27447 7.759 2.15053 7.78529 2.03653 7.83711C1.92253 7.88893 1.82122 7.96502 1.73969 8.06006C1.58547 8.37394 1.48733 8.71237 1.44969 9.06006C1.4538 9.08321 1.4538 9.1069 1.44969 9.13006C1.29969 10.5601 0.179688 10.2801 0.179688 9.11006C0.179688 8.90006 0.239687 8.69006 0.279687 8.50006C0.35142 8.11067 0.486548 7.73569 0.679688 7.39006C0.947701 6.97642 1.36818 6.68532 1.84969 6.58006C2.66031 6.48613 3.47907 6.48613 4.28969 6.58006L9.99969 6.63006C10.4797 6.63006 11.0697 6.74006 11.6097 6.76006H11.7797C11.7297 5.65197 11.7698 4.54165 11.8997 3.44006C12.0797 2.44006 12.5297 1.82006 13.1697 1.77006C13.8097 1.72006 15.3197 2.47006 16.7397 3.63006Z" fill="#4D7CCE"/>
<path d="M8.99979 18.35L8.28979 18.59C7.47979 19.07 7.28979 17.66 8.02979 17.44C9.99979 16.79 12.4598 16 12.5298 16C12.6424 15.9955 12.7536 16.027 12.8471 16.0899C12.9406 16.1529 13.0116 16.244 13.0498 16.35C13.1062 16.5315 13.1365 16.72 13.1398 16.91C13.1398 17.79 13.0698 19.85 13.1998 20.7L13.3698 21.31C13.5998 21.38 13.8898 21.22 14.1798 21.06C14.531 20.8684 14.8655 20.6476 15.1798 20.4C16.0998 19.63 17.0498 18.86 17.9598 18.06C18.5698 17.53 19.1598 16.99 19.7098 16.42L21.4498 14.58L23.1198 12.82C23.1834 12.775 23.2608 12.754 23.3384 12.7606C23.4159 12.7672 23.4887 12.801 23.5438 12.8561C23.5988 12.9111 23.6326 12.9839 23.6392 13.0615C23.6458 13.139 23.6248 13.2165 23.5798 13.28L21.9098 15L20.2098 16.88C19.6498 17.48 19.0598 18.04 18.4498 18.6C17.5498 19.42 16.6098 20.22 15.7098 21.01C15.2395 21.4383 14.7067 21.7923 14.1298 22.06C13.7994 22.2055 13.4301 22.2371 13.0798 22.15C12.8701 22.077 12.6907 21.9363 12.5698 21.75C12.3856 21.446 12.2727 21.104 12.2398 20.75C12.0898 19.96 12.1198 18.12 12.0798 17.12C11.4398 17.44 10.1798 17.92 8.99979 18.35Z" fill="#4D7CCE"/>
<path d="M1.30012 10.6401C1.56487 10.9704 1.90887 11.2284 2.30012 11.3901C3.46254 11.7417 4.67753 11.8873 5.89012 11.8201C6.23093 11.8263 6.56855 11.8871 6.89012 12.0001C7.07448 12.07 7.22962 12.2005 7.33012 12.3701C7.58123 12.822 7.70561 13.3334 7.69012 13.8501C7.66016 14.382 7.56957 14.9087 7.42012 15.4201C7.1534 16.5973 6.98614 17.7949 6.92012 19.0001C6.77012 19.2401 6.54012 19.1101 6.38012 19.1501C5.91214 19.1504 5.44683 19.0796 5.00012 18.9401C4.59133 18.8189 4.20591 18.6296 3.86012 18.3801C3.08753 17.8094 2.37398 17.1629 1.73012 16.4501C1.29368 15.9463 0.923974 15.3884 0.630122 14.7901C0.34749 14.1548 0.162081 13.4806 0.0801219 12.7901C0.00975102 12.1253 0.00975102 11.4549 0.0801219 10.7901C0.0940891 10.6758 0.147072 10.5698 0.230122 10.4901C0.310122 10.3601 1.31012 10.4601 1.30012 10.6401ZM1.30012 12.6401C1.36685 13.1955 1.51511 13.738 1.74012 14.2501C1.98907 14.7461 2.29805 15.2095 2.66012 15.6301C3.24625 16.2832 3.89614 16.8762 4.60012 17.4001C4.77633 17.5327 4.97197 17.6373 5.18012 17.7101C5.50484 17.8247 5.83966 17.9084 6.18012 17.9601C6.01012 16.5201 6.53012 15.0801 6.47012 13.8601C6.41012 12.6401 6.33012 13.1001 5.57012 13.0301C4.57272 12.9831 3.58509 12.8118 2.63012 12.5201C2.13944 12.3563 1.68219 12.1056 1.28012 11.7801C1.27482 12.0707 1.28818 12.3613 1.32012 12.6501L1.30012 12.6401Z" fill="#4D7CCE"/>
</g>
<defs>
<clipPath id="clip0_388_974">
<rect width="24" height="24" fill="white"/>
</clipPath>
</defs>
</svg>
