<svg width="20" height="20" viewBox="0 0 20 20" fill="none" xmlns="http://www.w3.org/2000/svg">
<path fill-rule="evenodd" clip-rule="evenodd" d="M18.1293 6.36752C17.7536 5.75378 17.1398 5.52832 15.474 4.66401C11.1778 3.02326 10.9647 2.82278 10.6516 3.08578C10.4874 3.2477 10.4874 3.51262 10.6516 3.67454C12.0815 4.42817 13.5584 5.08918 15.0731 5.65348C15.1733 5.72867 16.9143 6.99369 17.0145 7.0188C17.1147 7.04391 12.593 9.14813 12.3552 9.24831C11.9885 9.51771 11.5555 9.68232 11.1026 9.72421C10.9898 9.72421 4.96515 7.59501 4.43916 7.21915C4.90251 6.98127 2.73564 8.33391 9.09852 4.30084C9.34807 4.15441 9.34563 3.79291 9.09404 3.64994C8.98771 3.58948 8.85846 3.58461 8.74778 3.63701L4.91506 5.56585C3.82541 6.06687 2.41 6.74325 3.22423 7.68263C3.03515 9.44623 2.98916 11.2222 3.08639 12.9934C1.64856 13.401 1.19123 15.2123 2.2632 16.2536C2.26614 16.2566 2.26922 16.2595 2.27229 16.2625C3.27431 17.3647 5.32845 17.2896 5.74171 15.7615C6.11692 14.5688 5.39493 13.3097 4.17603 13.0309C4.41802 11.5489 4.46849 10.0418 4.32643 8.54694C5.00281 8.92267 6.21774 9.37359 8.99835 10.4758C9.58698 10.6761 10.6267 11.4527 11.4032 11.1897C13.7142 10.2555 15.9326 9.10637 18.0291 7.75783C18.3838 7.37493 18.4255 6.79718 18.1293 6.36752ZM4.43916 14.0956C4.77722 14.5089 4.63951 15.8241 4.0633 15.8491C3.48709 15.8741 2.81084 14.8596 2.94855 14.3336C3.21167 13.4067 4.35141 13.9954 4.43916 14.0956Z" fill="black"/>
<path fill-rule="evenodd" clip-rule="evenodd" d="M15.5117 10.1375C14.9229 10.1375 15.0858 10.7638 14.9481 11.39C14.8103 12.0162 14.0713 12.0038 13.2447 12.3796C12.418 12.7555 11.5663 13.344 10.8147 13.6321C9.56581 13.3345 8.34921 12.915 7.18232 12.3796C7.00695 11.5027 7.18232 11.0268 6.66888 11.0268C6.46136 11.0268 6.29303 11.195 6.29303 11.4026C6.29303 11.6101 6.29303 12.2919 6.29303 12.6552C6.2979 12.8063 6.36067 12.9498 6.4684 13.0559C7.11968 13.7198 10.2261 15.348 11.0276 15.1351C12.0283 14.7622 12.966 14.2385 13.8082 13.582C14.4462 13.3052 15.0309 12.9194 15.5367 12.4423C15.9501 11.9161 15.8625 11.4402 15.8749 10.7638C16.039 10.4911 15.8462 10.1432 15.5281 10.1375C15.5226 10.1374 15.5172 10.1374 15.5117 10.1375Z" fill="black"/>
</svg>
