<svg width="20" height="20" viewBox="0 0 20 20" fill="none" xmlns="http://www.w3.org/2000/svg">
<g clip-path="url(#clip0_203_346)">
<path d="M16.1829 8.92501C16.1669 8.85189 16.1233 8.78776 16.0613 8.74587C15.9992 8.70399 15.9234 8.68757 15.8496 8.70001C15.8121 8.70602 15.7763 8.7195 15.7441 8.73965C15.7119 8.75979 15.6841 8.78619 15.6624 8.81728C15.6406 8.84837 15.6253 8.88352 15.6174 8.92063C15.6095 8.95775 15.6091 8.99608 15.6163 9.03334C15.7301 9.88112 15.7775 10.7365 15.7579 11.5917C15.7579 14.0167 15.5329 16.9917 15.5246 17.7083C15.5246 17.95 15.2579 18.0333 14.9746 18.1417C14.4329 18.3417 13.7246 18.4333 13.3079 18.55C12.36 18.789 11.392 18.9396 10.4163 19C8.94961 19.1 7.46627 19.05 5.94127 19C5.27461 19 4.04127 19.05 2.94127 18.9583C2.3631 18.9489 1.7941 18.8123 1.27461 18.5583C1.22787 18.3885 1.19169 18.216 1.16627 18.0417C1.06166 16.9338 1.02548 15.8206 1.05794 14.7083C1.05794 12.3583 1.20794 9.64168 1.34127 8.35834C1.35137 7.66276 1.41545 6.96901 1.53294 6.28334C1.61841 5.91214 1.84573 5.58912 2.16627 5.38334C3.16372 4.96295 4.23389 4.74212 5.31627 4.73334C7.48294 4.59168 9.86627 4.73334 10.3913 4.73334C10.4508 4.72252 10.5046 4.69115 10.5434 4.6447C10.5822 4.59825 10.6034 4.53968 10.6034 4.47918C10.6034 4.41868 10.5822 4.3601 10.5434 4.31365C10.5046 4.2672 10.4508 4.23583 10.3913 4.22501C8.40553 4.08163 6.41278 4.06215 4.42461 4.16668C3.52184 4.19598 2.63328 4.39973 1.80794 4.76668C1.56469 4.91461 1.35324 5.10939 1.18586 5.33971C1.01849 5.57003 0.898529 5.83129 0.832941 6.10834C0.676197 6.84099 0.57866 7.58505 0.541274 8.33334C0.357941 9.83334 0.116274 13.2583 0.107941 15.8333C0.0729211 16.8386 0.148373 17.8446 0.332941 18.8333C0.381537 19.0389 0.495592 19.2232 0.657941 19.3583C1.15807 19.6809 1.7311 19.8729 2.32461 19.9167C3.51857 20.0257 4.71855 20.0535 5.91627 20C7.46627 20 8.97461 20 10.4579 19.8833C11.486 19.7989 12.5042 19.6204 13.4996 19.35C14.2066 19.2108 14.8986 19.0043 15.5663 18.7333C15.7673 18.6489 15.9403 18.5096 16.0656 18.3312C16.191 18.1528 16.2634 17.9427 16.2746 17.725C16.2746 17.0083 16.4163 14.0333 16.3746 11.6083C16.3785 10.7103 16.3144 9.81334 16.1829 8.92501Z" fill="#94B0E2"/>
<path d="M19.6658 1.32503C19.6025 0.954198 19.4281 0.611308 19.1658 0.341695C18.2661 -0.053393 17.2607 -0.1384 16.3075 0.100029C14.3057 0.43073 12.3485 0.98994 10.4741 1.7667C10.361 1.81397 10.2672 1.89823 10.2082 2.00571C10.1492 2.11319 10.1283 2.23751 10.1491 2.35836C10.1673 2.45142 10.2059 2.53929 10.2621 2.61566C10.3183 2.69203 10.3907 2.75499 10.4741 2.80003C11.2852 3.10455 12.1219 3.33603 12.9741 3.4917C13.1098 3.53067 13.2411 3.58374 13.3658 3.65003C12.6408 4.48336 11.5241 5.85003 10.3325 7.35836C6.37413 12.225 6.20746 12.5 6.70746 13.25C7.00746 13.7167 7.72413 13.875 8.43246 13.25C12.5991 9.91669 14.9908 8.10836 16.2325 7.13336L16.6658 6.80836C16.9065 7.39887 17.217 7.95841 17.5908 8.47503C17.7102 8.64134 17.8866 8.7579 18.0864 8.80247C18.2862 8.84704 18.4954 8.81651 18.6741 8.7167C19.0664 8.39262 19.3391 7.94681 19.4491 7.45003C19.6956 6.51914 19.8326 5.56267 19.8575 4.60003C19.9264 3.50463 19.8621 2.4049 19.6658 1.32503ZM18.9158 4.5667C18.9018 5.44907 18.7872 6.32698 18.5741 7.18336C18.5227 7.40447 18.4414 7.61754 18.3325 7.8167C18.2491 7.68336 18.0158 7.53336 17.8991 7.32503C17.5741 6.75836 17.2908 6.08336 17.1491 5.87503C17.1093 5.82623 17.0591 5.7869 17.0021 5.75989C16.9452 5.73288 16.883 5.71887 16.82 5.71887C16.7569 5.71887 16.6947 5.73288 16.6378 5.75989C16.5809 5.7869 16.5307 5.82623 16.4908 5.87503C16.2448 6.12217 15.9832 6.35321 15.7075 6.5667C14.4908 7.50003 12.0908 9.3667 8.03246 12.8167C7.69079 13.1 7.35746 13.1417 7.19913 12.925C6.87413 12.4417 7.38246 11.7667 10.7491 7.72503C12.2241 5.9667 13.5658 4.3917 14.2575 3.70003C14.3136 3.63039 14.3442 3.54364 14.3442 3.4542C14.3442 3.36475 14.3136 3.278 14.2575 3.20836C14.0203 2.99826 13.7335 2.852 13.4241 2.78336C12.8825 2.6167 11.7575 2.5167 11.2075 2.3417C12.6393 1.84091 14.1075 1.45088 15.5991 1.17503C16.3397 1.0246 17.0935 0.949216 17.8491 0.950029C18.0924 0.939096 18.3342 0.993782 18.5491 1.10836C18.6325 1.1667 18.6491 1.33336 18.6991 1.5417C18.8939 2.5375 18.9666 3.55331 18.9158 4.5667Z" fill="#94B0E2"/>
</g>
<defs>
<clipPath id="clip0_203_346">
<rect width="20" height="20" fill="white"/>
</clipPath>
</defs>
</svg>
