<svg width="20" height="20" viewBox="0 0 20 20" fill="none" xmlns="http://www.w3.org/2000/svg">
<g clip-path="url(#clip0_1437_5778)">
<path d="M16.1833 8.92501C16.1672 8.85189 16.1237 8.78776 16.0616 8.74587C15.9996 8.70399 15.9238 8.68757 15.85 8.70001C15.8125 8.70602 15.7766 8.7195 15.7445 8.73965C15.7123 8.75979 15.6845 8.78619 15.6627 8.81728C15.641 8.84837 15.6257 8.88352 15.6178 8.92063C15.6098 8.95775 15.6095 8.99608 15.6166 9.03334C15.7305 9.88112 15.7779 10.7365 15.7583 11.5917C15.7583 14.0167 15.5333 16.9917 15.525 17.7083C15.525 17.95 15.2583 18.0333 14.975 18.1417C14.4333 18.3417 13.725 18.4333 13.3083 18.55C12.3604 18.789 11.3924 18.9396 10.4166 19C8.94997 19.1 7.46664 19.05 5.94164 19C5.27497 19 4.04164 19.05 2.94164 18.9583C2.36347 18.9489 1.79446 18.8123 1.27497 18.5583C1.22823 18.3885 1.19205 18.216 1.16664 18.0417C1.06202 16.9338 1.02584 15.8206 1.05831 14.7083C1.05831 12.3583 1.20831 9.64168 1.34164 8.35834C1.35174 7.66276 1.41582 6.96901 1.53331 6.28334C1.61878 5.91214 1.84609 5.58912 2.16664 5.38334C3.16409 4.96295 4.23426 4.74212 5.31664 4.73334C7.48331 4.59168 9.86664 4.73334 10.3916 4.73334C10.4512 4.72252 10.505 4.69115 10.5438 4.6447C10.5825 4.59825 10.6038 4.53968 10.6038 4.47918C10.6038 4.41868 10.5825 4.3601 10.5438 4.31365C10.505 4.2672 10.4512 4.23583 10.3916 4.22501C8.4059 4.08163 6.41314 4.06215 4.42497 4.16668C3.52221 4.19598 2.63365 4.39973 1.80831 4.76668C1.56505 4.91461 1.3536 5.10939 1.18623 5.33971C1.01886 5.57003 0.898895 5.83129 0.833307 6.10834C0.676564 6.84099 0.579027 7.58505 0.54164 8.33334C0.358307 9.83334 0.11664 13.2583 0.108307 15.8333C0.0732874 16.8386 0.148739 17.8446 0.333307 18.8333C0.381904 19.0389 0.495959 19.2232 0.658307 19.3583C1.15843 19.6809 1.73147 19.8729 2.32497 19.9167C3.51893 20.0257 4.71891 20.0535 5.91664 20C7.46664 20 8.97497 20 10.4583 19.8833C11.4864 19.7989 12.5045 19.6204 13.5 19.35C14.2069 19.2108 14.899 19.0043 15.5666 18.7333C15.7676 18.6489 15.9407 18.5096 16.066 18.3312C16.1913 18.1528 16.2637 17.9427 16.275 17.725C16.275 17.0083 16.4166 14.0333 16.375 11.6083C16.3789 10.7103 16.3148 9.81334 16.1833 8.92501Z" fill="#4D7CCE"/>
<path d="M19.6666 1.32503C19.6034 0.954198 19.429 0.611308 19.1666 0.341695C18.267 -0.053393 17.2615 -0.1384 16.3083 0.100029C14.3065 0.43073 12.3493 0.98994 10.475 1.7667C10.3618 1.81397 10.2681 1.89823 10.209 2.00571C10.15 2.11319 10.1292 2.23751 10.15 2.35836C10.1682 2.45142 10.2067 2.53929 10.2629 2.61566C10.3191 2.69203 10.3915 2.75499 10.475 2.80003C11.2861 3.10455 12.1227 3.33603 12.975 3.4917C13.1107 3.53067 13.242 3.58374 13.3666 3.65003C12.6416 4.48336 11.525 5.85003 10.3333 7.35836C6.37498 12.225 6.20831 12.5 6.70831 13.25C7.00831 13.7167 7.72498 13.875 8.43331 13.25C12.6 9.91669 14.9916 8.10836 16.2333 7.13336L16.6666 6.80836C16.9073 7.39887 17.2179 7.95841 17.5916 8.47503C17.711 8.64134 17.8874 8.7579 18.0872 8.80247C18.287 8.84704 18.4962 8.81651 18.675 8.7167C19.0672 8.39262 19.34 7.94681 19.45 7.45003C19.6964 6.51914 19.8335 5.56267 19.8583 4.60003C19.9273 3.50463 19.8629 2.4049 19.6666 1.32503ZM18.9166 4.5667C18.9027 5.44907 18.788 6.32698 18.575 7.18336C18.5236 7.40447 18.4423 7.61754 18.3333 7.8167C18.25 7.68336 18.0166 7.53336 17.9 7.32503C17.575 6.75836 17.2916 6.08336 17.15 5.87503C17.1101 5.82623 17.0599 5.7869 17.003 5.75989C16.946 5.73288 16.8838 5.71887 16.8208 5.71887C16.7578 5.71887 16.6956 5.73288 16.6386 5.75989C16.5817 5.7869 16.5315 5.82623 16.4916 5.87503C16.2457 6.12217 15.984 6.35321 15.7083 6.5667C14.4916 7.50003 12.0916 9.3667 8.03331 12.8167C7.69165 13.1 7.35831 13.1417 7.19998 12.925C6.87498 12.4417 7.38331 11.7667 10.75 7.72503C12.225 5.9667 13.5666 4.3917 14.2583 3.70003C14.3145 3.63039 14.3451 3.54364 14.3451 3.4542C14.3451 3.36475 14.3145 3.278 14.2583 3.20836C14.0211 2.99826 13.7343 2.852 13.425 2.78336C12.8833 2.6167 11.7583 2.5167 11.2083 2.3417C12.6402 1.84091 14.1084 1.45088 15.6 1.17503C16.3405 1.0246 17.0943 0.949216 17.85 0.950029C18.0933 0.939096 18.3351 0.993782 18.55 1.10836C18.6333 1.1667 18.65 1.33336 18.7 1.5417C18.8947 2.5375 18.9675 3.55331 18.9166 4.5667Z" fill="#4D7CCE"/>
</g>
<defs>
<clipPath id="clip0_1437_5778">
<rect width="20" height="20" fill="white"/>
</clipPath>
</defs>
</svg>
